<?xml version="1.0" encoding="UTF-8"?>
<svg version="1.1" xmlns="http://www.w3.org/2000/svg" width="500" height="500">
<path d="M0 0 C2.52381459 -0.00389407 5.04762853 -0.00823019 7.57144165 -0.01298523 C12.84484481 -0.02041864 18.1181986 -0.0203176 23.39160156 -0.01489258 C29.44751004 -0.00885742 35.5031859 -0.02116669 41.55905473 -0.04246265 C47.43394818 -0.06234597 53.30875197 -0.06523565 59.18367386 -0.06172752 C61.6609311 -0.0622373 64.13819234 -0.06740976 66.61542892 -0.07753944 C87.28863751 -0.15171653 107.17214023 -0.11959633 123.07421875 15.12109375 C135.25986877 28.22242846 138.25444253 43.28199388 138.24682617 60.60693359 C138.25018478 61.71369949 138.2535434 62.82046539 138.25700378 63.96076965 C138.26646707 67.60276424 138.26845448 71.24471264 138.26953125 74.88671875 C138.27274671 77.42965717 138.276111 79.97259541 138.27961731 82.51553345 C138.28559678 87.83978783 138.28750137 93.16402515 138.28686523 98.48828125 C138.28626474 104.62081592 138.29681687 110.75326256 138.3126089 116.88577497 C138.32731792 122.81138112 138.33085176 128.73696067 138.33025551 134.66258621 C138.33143224 137.17188502 138.33583676 139.68118454 138.34358788 142.19047165 C138.35343094 145.70566791 138.35049273 149.22063965 138.34448242 152.73583984 C138.35010193 153.76265366 138.35572144 154.78946747 138.36151123 155.84739685 C138.29388838 171.4825639 133.41437655 184.83366354 122.41796875 196.18359375 C109.56438564 207.93172536 94.23368211 210.62671924 77.29711914 210.55957031 C76.18483444 210.56307495 75.07254974 210.56657959 73.92655945 210.57019043 C70.28821373 210.57891706 66.65006609 210.57319035 63.01171875 210.56640625 C60.45926374 210.5677556 57.90680899 210.56969838 55.35435486 210.57220459 C50.01949363 210.57514367 44.68470186 210.57109198 39.34985352 210.56152344 C33.21615032 210.55064786 27.08258022 210.55416501 20.94888026 210.56517625 C15.00618151 210.57541034 9.06352345 210.57424497 3.12081718 210.56841278 C0.61121031 210.56708643 -1.8984 210.56868809 -4.40800285 210.57337189 C-45.92149422 210.63385594 -45.92149422 210.63385594 -60.8984375 196.30078125 C-72.2748267 184.23300928 -77.23979793 171.15843351 -77.14135742 154.80249023 C-77.14325577 153.7929982 -77.14515411 152.78350616 -77.14710999 151.74342346 C-77.15079423 148.42782657 -77.14014086 145.11245223 -77.12890625 141.796875 C-77.12771223 139.47152227 -77.12726176 137.14616906 -77.1275177 134.82081604 C-77.12595649 129.95139536 -77.11769877 125.08204857 -77.10424805 120.21264648 C-77.08732536 114.01195236 -77.08343219 107.81133978 -77.08419323 101.61062527 C-77.08391936 96.80696351 -77.07840261 92.0033191 -77.07119179 87.19966316 C-77.06803782 84.91582432 -77.06604548 82.63198353 -77.06529808 80.34814262 C-77.03190786 31.61882039 -77.03190786 31.61882039 -61.90234375 15.21484375 C-44.64029698 -1.27327109 -22.27039533 -0.01435167 0 0 Z " fill="#2452B9" transform="translate(217.8984375,146.69921875)"/>
<path d="M0 0 C4.2625502 1.10826305 5.78082272 3.42766542 8.47265625 6.796875 C10.12408248 8.95379706 10.12408248 8.95379706 12.625 10.8125 C14.76139992 12.52161994 16.25404658 14.05555775 18 16.125 C21.63895947 20.31651296 25.36411168 24.41414778 29.1875 28.4375 C29.75774902 29.07083252 30.32799805 29.70416504 30.91552734 30.35668945 C40.62533651 40.40362655 51.32646124 42.2822752 64.7421875 42.6171875 C69.82861573 42.69199434 74.91312548 42.69388013 80 42.6875 C82.63413443 42.7056508 85.26825196 42.72646089 87.90234375 42.75 C94.31002265 42.80152663 100.71713262 42.82010355 107.125 42.8125 C107.17503872 46.75940003 107.21101633 50.70617309 107.23486328 54.65332031 C107.24967591 56.64394637 107.27510992 58.63448437 107.30078125 60.625 C107.38599881 77.49807707 103.44611606 91.30466447 91.44140625 103.6953125 C78.58782314 115.44344411 63.25711961 118.13843799 46.32055664 118.07128906 C45.20827194 118.0747937 44.09598724 118.07829834 42.94999695 118.08190918 C39.31165123 118.09063581 35.67350359 118.0849091 32.03515625 118.078125 C29.48270124 118.07947435 26.93024649 118.08141713 24.37779236 118.08392334 C19.04293113 118.08686242 13.70813936 118.08281073 8.37329102 118.07324219 C2.23958782 118.06236661 -3.89398228 118.06588376 -10.02768224 118.076895 C-15.97038099 118.08712909 -21.91303905 118.08596372 -27.85574532 118.08013153 C-30.36535219 118.07880518 -32.8749625 118.08040684 -35.38456535 118.08509064 C-76.89805672 118.14557469 -76.89805672 118.14557469 -91.875 103.8125 C-104.93794139 89.95567819 -108.23681882 76.23097603 -108 57.75 C-107.98994631 56.39388685 -107.9808247 55.03776645 -107.97265625 53.68164062 C-107.94924058 50.391739 -107.91644423 47.10221562 -107.875 43.8125 C-106.9599041 43.80703156 -106.9599041 43.80703156 -106.02632141 43.80145264 C-99.61702785 43.75930509 -93.20842907 43.68973884 -86.79956055 43.60498047 C-84.41486597 43.57693472 -82.03008127 43.55563957 -79.64526367 43.54150391 C-53.49330662 43.45867759 -53.49330662 43.45867759 -31.78866577 30.0660553 C-30.91487778 29.16904152 -30.91487778 29.16904152 -30.0234375 28.25390625 C-29.4015152 27.62773911 -28.7795929 27.00157196 -28.13882446 26.35643005 C-26.16866412 24.36961066 -24.2092198 22.37260274 -22.25 20.375 C-20.92778585 19.0377165 -19.60487512 17.70112134 -18.28125 16.36523438 C-15.84770982 13.90730869 -13.41827321 11.44548341 -10.99365234 8.97875977 C-10.46390808 8.44276154 -9.93416382 7.90676331 -9.3883667 7.35452271 C-7.95924204 5.89833718 -6.55046084 4.42226654 -5.14306641 2.94506836 C-2.875 0.8125 -2.875 0.8125 0 0 Z " fill="#11328F" transform="translate(248.875,239.1875)"/>
<path d="M0 0 C2.54229918 1.14015326 3.90990494 2.55865205 5.796875 4.60546875 C15.06553521 14.19904509 26.27620752 21.04806951 39.046875 24.91796875 C40.15659668 25.25715332 41.26631836 25.59633789 42.40966797 25.94580078 C48.23422753 27.38220866 54.10949841 27.27378316 60.078125 27.33203125 C61.9256134 27.36108047 61.9256134 27.36108047 63.8104248 27.39071655 C67.72250566 27.45022662 71.6346164 27.4967837 75.546875 27.54296875 C78.20836453 27.58012276 80.86979946 27.62022795 83.53125 27.66015625 C90.03635121 27.7559047 96.54152552 27.84103509 103.046875 27.91796875 C99.53421265 38.91901863 92.1807681 48.40228279 81.90454102 53.79418945 C70.19198618 59.69741561 59.59352956 61.06887679 46.6965332 61.06323242 C45.58483261 61.06659103 44.47313202 61.06994965 43.32774353 61.07341003 C39.66770293 61.08287623 36.00770831 61.08486108 32.34765625 61.0859375 C29.78948447 61.08915346 27.23131288 61.09251779 24.67314148 61.09602356 C19.31439718 61.10200427 13.95566983 61.10390758 8.59692383 61.10327148 C2.43377492 61.1026719 -3.72928613 61.11320539 -9.89241284 61.12901515 C-15.85431632 61.1437549 -21.81619342 61.14725713 -27.77811623 61.14666176 C-30.2988909 61.14783609 -32.81966633 61.15222693 -35.34042931 61.15999413 C-38.87896221 61.16987537 -42.41727349 61.16688385 -45.95581055 61.16088867 C-46.98118927 61.16650818 -48.00656799 61.17212769 -49.0630188 61.17791748 C-64.97913688 61.10995811 -80.1391839 58.29191205 -91.953125 46.91796875 C-103.953125 33.63454629 -103.953125 33.63454629 -103.953125 27.91796875 C-103.33639923 27.90766129 -102.71967346 27.89735382 -102.08425903 27.88673401 C-95.62704285 27.77799879 -89.16994753 27.66346143 -82.71289062 27.5456543 C-80.30764308 27.50251881 -77.90236911 27.46083007 -75.49707031 27.4206543 C-72.02661194 27.36242995 -68.55628397 27.29888963 -65.0859375 27.234375 C-63.49001266 27.20930626 -63.49001266 27.20930626 -61.86184692 27.18373108 C-52.21681659 26.99518684 -43.43593563 26.68726386 -34.515625 22.79296875 C-33.78335693 22.48020996 -33.05108887 22.16745117 -32.29663086 21.84521484 C-21.32745012 17.02877035 -11.18274968 10.3553778 -3.421875 1.08984375 C-1.953125 -0.08203125 -1.953125 -0.08203125 0 0 Z " fill="#062181" transform="translate(248.953125,296.08203125)"/>
<path d="M0 0 C4.2625502 1.10826305 5.78082272 3.42766542 8.47265625 6.796875 C10.12408248 8.95379706 10.12408248 8.95379706 12.625 10.8125 C14.76139992 12.52161994 16.25404658 14.05555775 18 16.125 C21.63895947 20.31651296 25.36411168 24.41414778 29.1875 28.4375 C29.75774902 29.07083252 30.32799805 29.70416504 30.91552734 30.35668945 C40.62533651 40.40362655 51.32646124 42.2822752 64.7421875 42.6171875 C69.82861573 42.69199434 74.91312548 42.69388013 80 42.6875 C82.63413443 42.7056508 85.26825196 42.72646089 87.90234375 42.75 C94.31011177 42.80152735 100.71703634 42.81695307 107.125 42.8125 C107.125 47.7625 107.125 52.7125 107.125 57.8125 C99.95746076 57.88721375 92.79015325 57.94136711 85.62231445 57.97729492 C83.189006 57.99228847 80.75572413 58.0126901 78.32250977 58.03881836 C74.80478308 58.07561919 71.28741677 58.0923213 67.76953125 58.10546875 C66.16402153 58.12869453 66.16402153 58.12869453 64.52607727 58.15238953 C46.67661696 58.15627817 33.68463252 52.20511613 21.125 39.8125 C20.40699219 39.10818848 19.68898438 38.40387695 18.94921875 37.67822266 C14.88356163 33.68070963 10.83411831 29.66684074 6.80859375 25.62890625 C6.12337646 24.94256104 5.43815918 24.25621582 4.73217773 23.54907227 C3.125 21.8125 3.125 21.8125 2.125 19.8125 C-2.90831419 20.1786113 -5.29647963 22.79627775 -8.55859375 26.31640625 C-9.66312652 27.46186337 -10.76795445 28.60703593 -11.87304688 29.75195312 C-13.58288371 31.54777977 -15.28736929 33.34824795 -16.98510742 35.15551758 C-28.58294149 47.44530177 -40.48634185 56.62970095 -57.9780426 58.06758118 C-61.20364145 58.15584262 -64.41419293 58.1509934 -67.640625 58.10546875 C-68.80003601 58.10122391 -69.95944702 58.09697906 -71.1539917 58.09260559 C-74.81124351 58.07598228 -78.46791831 58.038361 -82.125 58 C-84.62368989 57.98493203 -87.12238852 57.97124736 -89.62109375 57.95898438 C-95.70594721 57.92613241 -101.79037621 57.87446478 -107.875 57.8125 C-107.875 53.1925 -107.875 48.5725 -107.875 43.8125 C-106.39813721 43.8031543 -104.92127441 43.79380859 -103.3996582 43.78417969 C-97.8659971 43.74399552 -92.33287547 43.67815949 -86.79956055 43.60498047 C-84.41486597 43.57693472 -82.03008127 43.55563957 -79.64526367 43.54150391 C-53.49330662 43.45867759 -53.49330662 43.45867759 -31.78866577 30.0660553 C-30.91487778 29.16904152 -30.91487778 29.16904152 -30.0234375 28.25390625 C-29.4015152 27.62773911 -28.7795929 27.00157196 -28.13882446 26.35643005 C-26.16866412 24.36961066 -24.2092198 22.37260274 -22.25 20.375 C-20.92778585 19.0377165 -19.60487512 17.70112134 -18.28125 16.36523438 C-15.84770982 13.90730869 -13.41827321 11.44548341 -10.99365234 8.97875977 C-10.46390808 8.44276154 -9.93416382 7.90676331 -9.3883667 7.35452271 C-7.95924204 5.89833718 -6.55046084 4.42226654 -5.14306641 2.94506836 C-2.875 0.8125 -2.875 0.8125 0 0 Z " fill="#D8E6F5" transform="translate(248.875,239.1875)"/>
<path d="M0 0 C2.36848193 1.08842576 3.70399224 2.33434454 5.49243164 4.23022461 C6.14501953 4.90851318 6.79760742 5.58680176 7.4699707 6.28564453 C8.15671875 7.00856689 8.8434668 7.73148926 9.55102539 8.47631836 C23.61485896 22.85920729 38.10000202 31.93955206 58.73791504 32.2928772 C60.57899841 32.31020401 60.57899841 32.31020401 62.45727539 32.32788086 C63.73332642 32.34724701 65.00937744 32.36661316 66.32409668 32.38656616 C69.69086439 32.43599555 73.05752931 32.47735723 76.42443848 32.51470947 C79.87037696 32.55495862 83.3161553 32.60595473 86.76196289 32.65600586 C93.50404684 32.75177586 100.24620142 32.83690062 106.98852539 32.91381836 C106.67877071 34.68513397 106.36562114 36.45585614 106.05102539 38.22631836 C105.87700195 39.21245117 105.70297852 40.19858398 105.52368164 41.21459961 C104.98852539 43.91381836 104.98852539 43.91381836 103.98852539 46.91381836 C96.79855641 47.00732262 89.60872275 47.07798432 82.41826439 47.12106705 C79.077774 47.14176613 75.73802067 47.1719818 72.39770508 47.21557617 C68.53984876 47.26462894 64.68257645 47.28690946 60.82446289 47.30444336 C59.64991547 47.3250885 58.47536804 47.34573364 57.26522827 47.36700439 C35.01257862 47.37290117 18.66721742 36.48509348 2.98852539 21.91381836 C1.99852539 20.92381836 1.99852539 20.92381836 0.98852539 19.91381836 C-2.89457121 20.15752735 -4.60214475 22.280046 -7.13647461 25.03881836 C-16.16600779 34.28787017 -26.22028744 39.11375398 -38.01147461 43.91381836 C-39.17743164 44.47649414 -39.17743164 44.47649414 -40.36694336 45.05053711 C-48.26538158 47.62890468 -57.15176024 47.05050557 -65.36303711 47.01147461 C-66.50308197 47.01005966 -67.64312683 47.00864471 -68.81771851 47.00718689 C-72.42399834 47.00163315 -76.03021385 46.98908943 -79.63647461 46.97631836 C-82.09610912 46.97129737 -84.55574462 46.96673552 -87.01538086 46.96264648 C-93.01410036 46.95167891 -99.01278289 46.9349875 -105.01147461 46.91381836 C-105.51434395 44.95621986 -106.01368451 42.99771459 -106.51147461 41.03881836 C-106.78991211 39.94827148 -107.06834961 38.85772461 -107.35522461 37.73413086 C-108.01147461 34.91381836 -108.01147461 34.91381836 -108.01147461 32.91381836 C-107.31958038 32.90573151 -106.62768616 32.89764465 -105.91482544 32.88931274 C-99.35439193 32.81096656 -92.79414662 32.72355976 -86.23396492 32.62629128 C-82.86231625 32.57661061 -79.49069471 32.53028144 -76.11889648 32.49194336 C-72.2313506 32.44600486 -68.34413557 32.38805789 -64.45678711 32.32788086 C-63.26159454 32.31632965 -62.06640198 32.30477844 -60.83499146 32.2928772 C-38.70754265 31.90735025 -25.11819635 23.41341132 -10.01147461 7.78881836 C-8.9159729 6.61379761 -8.9159729 6.61379761 -7.79833984 5.41503906 C-7.10554932 4.69018311 -6.41275879 3.96532715 -5.69897461 3.21850586 C-5.0840918 2.55834473 -4.46920898 1.89818359 -3.83569336 1.21801758 C-2.01147461 -0.08618164 -2.01147461 -0.08618164 0 0 Z " fill="#CBDDF2" transform="translate(249.011474609375,277.086181640625)"/>
<path d="M0 0 C0.83402344 0.55945313 1.66804688 1.11890625 2.52734375 1.6953125 C7.46011576 5.16056117 11.26290501 9.29191308 15 14 C15.67289063 14.83660156 16.34578125 15.67320312 17.0390625 16.53515625 C21.99062286 22.97960279 25.2026593 29.39506236 28 37 C28.30808594 37.76699219 28.61617187 38.53398437 28.93359375 39.32421875 C31.79958713 46.52348443 33.06198567 54.26267582 32 62 C29 64 29 64 25.5 63.875 C22 63 22 63 20.3359375 61.3515625 C18.63351259 58.35489642 18.441361 55.92595817 18.125 52.5 C17.36046116 46.19914546 15.67955905 41.07026061 13.0234375 35.328125 C12 33 12 33 12 31 C11.34 31 10.68 31 10 31 C9.67 29.35 9.34 27.7 9 26 C8.34 26 7.68 26 7 26 C5.73828125 24.4609375 5.73828125 24.4609375 4.3125 22.375 C-1.07123761 14.98861604 -9.23492192 7.92169269 -18 5 C-18 4.34 -18 3.68 -18 3 C-19.81209723 2.54007684 -21.62470361 2.08215964 -23.4375 1.625 C-24.95150391 1.24214844 -24.95150391 1.24214844 -26.49609375 0.8515625 C-28.23052734 0.43003906 -28.23052734 0.43003906 -30 0 C-30.67337402 -0.17789063 -31.34674805 -0.35578125 -32.04052734 -0.5390625 C-37.99068575 -2.01966179 -43.63395951 -2.30234842 -49.75 -2.25 C-50.66910156 -2.25773438 -51.58820313 -2.26546875 -52.53515625 -2.2734375 C-57.17948918 -2.25999515 -60.75276916 -2.07062694 -65 0 C-67.8125 0.125 -67.8125 0.125 -70 0 C-70 0.66 -70 1.32 -70 2 C-70.71285156 2.23074219 -71.42570312 2.46148437 -72.16015625 2.69921875 C-78.2653999 4.77812406 -82.89426072 7.08922097 -88 11 C-88.66 11 -89.32 11 -90 11 C-90.495 12.485 -90.495 12.485 -91 14 C-91.66 14 -92.32 14 -93 14 C-93.33 14.99 -93.66 15.98 -94 17 C-94.66 17 -95.32 17 -96 17 C-96 17.66 -96 18.32 -96 19 C-96.66 19 -97.32 19 -98 19 C-98.26039063 19.55300781 -98.52078125 20.10601562 -98.7890625 20.67578125 C-100.15858651 23.30438378 -101.74085177 25.7148696 -103.375 28.1875 C-108.91255102 36.83344765 -112.79065194 45.31920309 -113.3125 55.6875 C-113.61538485 59.55061025 -113.72460951 60.66341163 -116.25 63.75 C-119 65 -119 65 -121.6875 64.9375 C-124 64 -124 64 -126 61 C-127.89797871 46.058935 -122.3217467 31.23276776 -114 19 C-110.64865726 14.69834831 -106.87368864 10.83315677 -103 7 C-101.70642578 5.67935547 -101.70642578 5.67935547 -100.38671875 4.33203125 C-95.56494519 -0.37925978 -90.01657587 -5 -83 -5 C-82.90952393 -5.62632324 -82.81904785 -6.25264648 -82.72583008 -6.89794922 C-82.48630615 -7.59162598 -82.24678223 -8.28530273 -82 -9 C-79.19404239 -10.26798949 -76.61346315 -11.23542039 -73.6875 -12.125 C-72.86443359 -12.38289307 -72.04136719 -12.64078613 -71.19335938 -12.90649414 C-44.7778499 -20.97129191 -22.31766323 -15.53871485 0 0 Z " fill="#74A9F3" transform="translate(296,195)"/>
<path d="M0 0 C0.79921875 0.30550781 1.5984375 0.61101562 2.421875 0.92578125 C14.61761237 6.26627134 23.70463724 16.27371882 29.01953125 28.30859375 C30.90164288 33.26739928 32.13852052 38.72039013 31 44 C27.53001271 46.31332486 26.07490752 46.33957563 22 46 C19 44 19 44 18.26171875 41.05859375 C18.07222656 39.86363281 17.88273437 38.66867188 17.6875 37.4375 C15.77796045 28.0807562 12.828256 22.69318637 4.96801758 17.27661133 C-4.54455 11.01008615 -13.79073181 8.33218031 -25.2109375 10.65234375 C-36.12700632 13.61673074 -44.181452 19.20231595 -50 29 C-51.80750018 32.83542722 -52.95549357 36.79344196 -54.0625 40.875 C-55 44 -55 44 -57 46 C-60.03989923 46.32339354 -62.14368353 46.45670212 -64.875 45 C-67.22037754 40.83043993 -66.35446519 36.62073077 -65.37890625 32.16015625 C-61.51200812 18.80646804 -51.04349277 7.77446468 -39 1 C-26.64279042 -4.13726691 -12.50167103 -4.94017646 0 0 Z " fill="#82B2F4" transform="translate(266,213)"/>
<path d="M0 0 C3.12859057 1.29297212 5.93934762 3.15931278 8.8125 4.9375 C20.08086932 11.69852159 30.38400193 13.27611101 43.3515625 13.4140625 C45.06162979 13.44311172 45.06162979 13.44311172 46.8062439 13.4727478 C50.41242217 13.53205822 54.0186332 13.57873363 57.625 13.625 C60.08464858 13.66322449 62.54428442 13.70227875 65.00390625 13.7421875 C71.00249944 13.83771948 77.00115519 13.92192806 83 14 C83 18.29 83 22.58 83 27 C75.67957287 27.09107623 68.35946541 27.16415639 61.03858757 27.20724869 C57.63764951 27.22795125 54.23712559 27.25594185 50.83642578 27.30175781 C46.90907266 27.35079564 42.9822931 27.37308784 39.0546875 27.390625 C37.26005569 27.42159271 37.26005569 27.42159271 35.4291687 27.45318604 C27.1784409 27.45533468 15.71471941 27.20118037 9.23068237 21.42340088 C8.6214946 20.71881744 8.6214946 20.71881744 8 20 C7.34 19.690625 6.68 19.38125 6 19.0625 C3.56708363 17.77001318 2.59329777 16.21676212 1 14 C0.01 13.34 -0.98 12.68 -2 12 C-2.33 11.01 -2.66 10.02 -3 9 C-3.66 9 -4.32 9 -5 9 C-4.67 7.35 -4.34 5.7 -4 4 C-3.34 4 -2.68 4 -2 4 C-2 3.01 -2 2.02 -2 1 C-1.34 0.67 -0.68 0.34 0 0 Z " fill="#0F2F8D" transform="translate(273,283)"/>
<path d="M0 0 C0.4125 0.37511719 0.825 0.75023437 1.25 1.13671875 C12.08261233 10.73615423 21.54638872 14.4335218 36.03125 14.51171875 C37.8787384 14.53864555 37.8787384 14.53864555 39.7635498 14.56611633 C43.67566564 14.62005461 47.58766058 14.65406326 51.5 14.6875 C54.16150393 14.71906893 56.8229223 14.75517831 59.484375 14.79101562 C65.98949591 14.87577214 72.49458197 14.94266261 79 15 C79 19.95 79 24.9 79 30 C71.83246076 30.07471375 64.66515325 30.12886711 57.49731445 30.16479492 C55.064006 30.17978847 52.63072413 30.2001901 50.19750977 30.22631836 C46.67978308 30.26311919 43.16241677 30.2798213 39.64453125 30.29296875 C38.03902153 30.31619453 38.03902153 30.31619453 36.40107727 30.33988953 C19.2259138 30.34363127 6.25282155 24.92002887 -6 13 C-4.68 12.67 -3.36 12.34 -2 12 C-1.67 13.32 -1.34 14.64 -1 16 C2.67420866 15.69381595 3.78135513 15.24228216 6.3125 12.4375 C6.869375 11.633125 7.42625 10.82875 8 10 C7.4225 9.79375 6.845 9.5875 6.25 9.375 C3.15522364 7.48374778 1.8081237 5.09964063 0 2 C0 1.34 0 0.68 0 0 Z " fill="#DEEBF8" transform="translate(277,267)"/>
<path d="M0 0 C2.52381459 -0.00389407 5.04762853 -0.00823019 7.57144165 -0.01298523 C12.84484481 -0.02041864 18.1181986 -0.0203176 23.39160156 -0.01489258 C29.44751004 -0.00885742 35.5031859 -0.02116669 41.55905473 -0.04246265 C47.43394818 -0.06234597 53.30875197 -0.06523565 59.18367386 -0.06172752 C61.6609311 -0.0622373 64.13819234 -0.06740976 66.61542892 -0.07753944 C106.67007448 -0.22125863 106.67007448 -0.22125863 121.96484375 13.77734375 C123.1015625 15.30078125 123.1015625 15.30078125 123.5390625 18.67578125 C123.3946875 19.54203125 123.2503125 20.40828125 123.1015625 21.30078125 C119.1015625 16.55078125 119.1015625 16.55078125 119.1015625 14.30078125 C117.35521085 13.7678429 115.60428598 13.24987462 113.8515625 12.73828125 C112.87703125 12.44824219 111.9025 12.15820312 110.8984375 11.859375 C108.08730911 11.29793455 106.77707948 11.50167773 104.1015625 12.30078125 C103.1115625 11.80578125 103.1115625 11.80578125 102.1015625 11.30078125 C102.1015625 10.64078125 102.1015625 9.98078125 102.1015625 9.30078125 C102.7615625 9.30078125 103.4215625 9.30078125 104.1015625 9.30078125 C102.03399973 6.50349045 100.95715879 6.27385852 97.4140625 5.61328125 C96.3209375 5.51015625 95.2278125 5.40703125 94.1015625 5.30078125 C93.7715625 5.96078125 93.4415625 6.62078125 93.1015625 7.30078125 C92.1115625 6.80578125 92.1115625 6.80578125 91.1015625 6.30078125 C91.1015625 5.31078125 91.1015625 4.32078125 91.1015625 3.30078125 C90.4651181 3.46311249 89.82867371 3.62544373 89.17294312 3.79269409 C85.08260644 4.46934339 81.0983971 4.43996185 76.95947266 4.43017578 C76.04649414 4.4319281 75.13351562 4.43368042 74.19287109 4.43548584 C71.17543635 4.43988476 68.15806035 4.43697078 65.140625 4.43359375 C63.03136178 4.43426793 60.92209864 4.43523891 58.81283569 4.43649292 C54.38612124 4.43796772 49.95942695 4.43582444 45.53271484 4.43115234 C39.89679647 4.42549014 34.2609261 4.42871303 28.62500954 4.43472481 C24.26316986 4.43836624 19.90134123 4.43717491 15.53950119 4.43459702 C13.46416595 4.43393579 11.38882966 4.43472762 9.31349564 4.43707657 C-2.13625742 4.44718162 -13.48553043 4.27901449 -24.8984375 3.30078125 C-25.2284375 3.96078125 -25.5584375 4.62078125 -25.8984375 5.30078125 C-26.70667969 5.24277344 -27.51492187 5.18476563 -28.34765625 5.125 C-35.08495205 4.61829243 -35.08495205 4.61829243 -40.7734375 7.67578125 C-41.8253125 8.97515625 -41.8253125 8.97515625 -42.8984375 10.30078125 C-45.81899549 11.48143235 -48.65565376 12.24395237 -51.71875 12.9609375 C-55.87306667 14.71146651 -57.99692019 17.13479003 -60.8359375 20.55078125 C-61.34189453 21.11152344 -61.84785156 21.67226562 -62.36914062 22.25 C-64.88564123 25.22310985 -65.94890312 26.66129903 -65.63671875 30.6171875 C-65.27126953 31.94556641 -65.27126953 31.94556641 -64.8984375 33.30078125 C-66.1484375 34.98828125 -66.1484375 34.98828125 -67.8984375 36.30078125 C-72.19118536 39.90668945 -72.90774664 44.50668047 -73.43334961 49.87231445 C-74.1365932 58.11938222 -74.13257947 66.384838 -74.21484375 74.65625 C-74.2354565 76.41173239 -74.25645396 78.1672103 -74.27781677 79.92268372 C-74.3325919 84.50758195 -74.38219462 89.09252159 -74.43066406 93.67749023 C-74.49011922 99.1977102 -74.55609806 104.7178557 -74.62096405 110.23801422 C-74.71841154 118.59222381 -74.80765092 126.94648467 -74.8984375 135.30078125 C-58.7284375 135.30078125 -42.5584375 135.30078125 -25.8984375 135.30078125 C-25.8984375 135.63078125 -25.8984375 135.96078125 -25.8984375 136.30078125 C-42.7284375 136.30078125 -59.5584375 136.30078125 -76.8984375 136.30078125 C-76.93854631 117.72594599 -76.93854631 117.72594599 -76.94726562 109.7109375 C-76.95320666 104.27586878 -76.96017793 98.84081715 -76.97387695 93.40576172 C-76.98486977 89.01611648 -76.99074846 84.62648962 -76.99331474 80.23683167 C-76.99513984 78.57540091 -76.99870245 76.91397098 -77.00416756 75.25254822 C-77.14140515 31.73754099 -77.14140515 31.73754099 -61.90234375 15.21484375 C-44.64029698 -1.27327109 -22.27039533 -0.01435167 0 0 Z " fill="#3F63AB" transform="translate(217.8984375,146.69921875)"/>
<path d="M0 0 C1.99016078 1.86247347 3.64674221 3.85544102 5.34765625 5.984375 C6.99908248 8.14129706 6.99908248 8.14129706 9.5 10 C12.4758024 12.38064192 14.76807725 15.08744382 17.23046875 17.984375 C18.82958917 19.80588965 20.48808805 21.46364382 22.25 23.125 C24.99478813 25.99455123 26.27293703 28.47078437 28 32 C30.56197123 34.81356892 30.56197123 34.81356892 33 37 C31.7251791 39.84383123 30.54862922 42.13754018 28 44 C25.8125 43.6875 25.8125 43.6875 24 43 C24 42.34 24 41.68 24 41 C23.1025708 40.75378906 22.2051416 40.50757813 21.28051758 40.25390625 C17.78485978 38.91776735 16.10852691 37.58717311 13.51171875 34.9375 C12.72345703 34.14085937 11.93519531 33.34421875 11.12304688 32.5234375 C10.31931641 31.69070313 9.51558594 30.85796875 8.6875 30 C7.86443359 29.16726563 7.04136719 28.33453125 6.19335938 27.4765625 C0.16897321 21.33794643 0.16897321 21.33794643 -1 19 C-4.64320399 19.31227463 -5.85560599 19.85560599 -8.5 22.5 C-11 25 -11 25 -13.625 25.5 C-14.40875 25.665 -15.1925 25.83 -16 26 C-17.05771739 27.63064764 -18.05273046 29.30280873 -19 31 C-21.6875 33.3125 -21.6875 33.3125 -24 35 C-25.98 34.01 -27.96 33.02 -30 32 C-30 31.34 -30 30.68 -30 30 C-30.66 29.67 -31.32 29.34 -32 29 C-31.34 29 -30.68 29 -30 29 C-29.7525 28.38125 -29.505 27.7625 -29.25 27.125 C-27.79371361 24.64931313 -26.62187494 24.04874998 -24 23 C-24 22.34 -24 21.68 -24 21 C-23.34 20.67 -22.68 20.34 -22 20 C-20.96564444 18.35443434 -19.97236487 16.6829392 -19 15 C-8.28492849 -1.78694536 -8.28492849 -1.78694536 0 0 Z " fill="#ECF3F8" transform="translate(252,240)"/>
<path d="M0 0 C0.66 0 1.32 0 2 0 C2.80718219 5.64945077 3.13996356 11.10075335 3.11352539 16.80273438 C3.11367142 17.64270966 3.11381744 18.48268494 3.1139679 19.34811401 C3.11327683 22.09668654 3.10552256 24.84518946 3.09765625 27.59375 C3.0957892 29.51045698 3.09436665 31.42716444 3.09336853 33.34387207 C3.08956595 38.36781145 3.07975512 43.39172154 3.06866455 48.41564941 C3.05840169 53.55053308 3.0538605 58.68542152 3.04882812 63.8203125 C3.03813068 73.88022115 3.0210816 83.94010813 3 94 C-4.71865075 94.15338292 -12.436902 94.25772839 -20.15673828 94.32958984 C-22.77733038 94.35957816 -25.3978237 94.40038304 -28.01806641 94.45263672 C-60.02954758 95.07457407 -60.02954758 95.07457407 -73.00390625 82.77734375 C-74.89767766 80.86772898 -76.73080173 78.90643807 -78.5625 76.9375 C-79.51431613 75.9453816 -80.46808985 74.95513751 -81.42382812 73.96679688 C-83.17052683 72.15106844 -84.90879495 70.32715685 -86.63500977 68.49194336 C-88.29379496 66.74411426 -89.9806676 65.0227177 -91.6875 63.32177734 C-93.79326806 61.20756131 -95.59757044 59.03043188 -97.4375 56.6875 C-100.16227601 53.50134816 -100.16227601 53.50134816 -104.1875 52.375 C-106.87414921 52.97203316 -108.76419035 53.40299311 -111 55 C-111.30970734 55.62373001 -111.61941467 56.24746002 -111.93850708 56.89009094 C-113.00507728 59.01009202 -114.07329288 60.33204168 -115.73388672 62.00854492 C-116.28140594 62.56559616 -116.82892517 63.1226474 -117.39303589 63.69657898 C-117.98263092 64.2852626 -118.57222595 64.87394623 -119.1796875 65.48046875 C-119.78886017 66.09392654 -120.39803284 66.70738434 -121.02566528 67.33943176 C-122.3125729 68.6320721 -123.60209562 69.92211348 -124.89404297 71.2097168 C-126.86968292 73.18219144 -128.8316186 75.16762471 -130.79296875 77.15429688 C-132.04606378 78.40966444 -133.299944 79.66424883 -134.5546875 80.91796875 C-135.14023407 81.51272507 -135.72578064 82.10748138 -136.32907104 82.72026062 C-141.27060182 87.60621456 -141.27060182 87.60621456 -145 88 C-145.99 87.34 -146.98 86.68 -148 86 C-147.505 85.01 -147.505 85.01 -147 84 C-145.35 84 -143.7 84 -142 84 C-141.67 82.35 -141.34 80.7 -141 79 C-140.01 79.33 -139.02 79.66 -138 80 C-138 79.01 -138 78.02 -138 77 C-137.34 77 -136.68 77 -136 77 C-135.67 76.01 -135.34 75.02 -135 74 C-134.34 74 -133.68 74 -133 74 C-133 73.01 -133 72.02 -133 71 C-132.01 71 -131.02 71 -130 71 C-129.505 69.515 -129.505 69.515 -129 68 C-127.67406641 67.31873476 -126.339572 66.65404058 -125 66 C-123.13851573 64.20338763 -123.13851573 64.20338763 -121.4375 62.125 C-120.56931641 61.10792969 -120.56931641 61.10792969 -119.68359375 60.0703125 C-117.96255564 58.01589499 -117.96255564 58.01589499 -116.47265625 55.7421875 C-115.98667969 55.16726562 -115.50070313 54.59234375 -115 54 C-114.01 54 -113.02 54 -112 54 C-111.731875 53.38125 -111.46375 52.7625 -111.1875 52.125 C-110 50 -110 50 -107 48 C-106.01 48 -105.02 48 -104 48 C-104 47.34 -104 46.68 -104 46 C-102 47 -102 47 -99.875 49.5 C-96.09531981 52.78667842 -93.91512045 52.75007862 -89 53 C-89.0928125 54.670625 -89.0928125 54.670625 -89.1875 56.375 C-89.125625 57.57125 -89.06375 58.7675 -89 60 C-88.01 60.66 -87.02 61.32 -86 62 C-85.690625 63.010625 -85.38125 64.02125 -85.0625 65.0625 C-84.711875 66.031875 -84.36125 67.00125 -84 68 C-82.07361988 68.75243555 -82.07361988 68.75243555 -80 69 C-78.4375 70.375 -78.4375 70.375 -77 72 C-76.46375 72.515625 -75.9275 73.03125 -75.375 73.5625 C-74 75 -74 75 -73 77 C-71.02 75.515 -71.02 75.515 -69 74 C-68.34 74.33 -67.68 74.66 -67 75 C-67 75.66 -67 76.32 -67 77 C-66.34 77.33 -65.68 77.66 -65 78 C-65.20625 78.7425 -65.4125 79.485 -65.625 80.25 C-66.15225005 82.92906532 -66.15225005 82.92906532 -65.5 85.25 C-63.16262106 87.9769421 -60.45660548 87.63614679 -57 88 C-55.515 88.99 -55.515 88.99 -54 90 C-46.29535086 91.33884067 -37.61121025 92.00786528 -30 90 C-27.375 89.8125 -27.375 89.8125 -25 90 C-24.34 90.66 -23.68 91.32 -23 92 C-20.77341846 92.37004294 -20.77341846 92.37004294 -18.2109375 92.4140625 C-17.26992188 92.45273437 -16.32890625 92.49140625 -15.359375 92.53125 C-14.37453125 92.5621875 -13.3896875 92.593125 -12.375 92.625 C-11.38242187 92.66367187 -10.38984375 92.70234375 -9.3671875 92.7421875 C-6.91164615 92.8366314 -4.4561159 92.92219875 -2 93 C-2 92.01 -2 91.02 -2 90 C-1.34 90 -0.68 90 0 90 C0 60.3 0 30.6 0 0 Z M-69 78 C-68 80 -68 80 -68 80 Z " fill="#2F5098" transform="translate(353,188)"/>
<path d="M0 0 C2.63871554 0.95632804 3.48527543 1.75098892 5.17749023 3.95947266 C8.92642441 8.53870769 13.04321853 12.67101644 17.23999023 16.83447266 C17.92754395 17.51783691 18.61509766 18.20120117 19.32348633 18.90527344 C20.98111972 20.55041525 22.64070827 22.19352306 24.30249023 23.83447266 C23.97249023 24.49447266 23.64249023 25.15447266 23.30249023 25.83447266 C22.64249023 25.83447266 21.98249023 25.83447266 21.30249023 25.83447266 C21.30249023 26.82447266 21.30249023 27.81447266 21.30249023 28.83447266 C20.64249023 28.83447266 19.98249023 28.83447266 19.30249023 28.83447266 C18.97249023 30.48447266 18.64249023 32.13447266 18.30249023 33.83447266 C18.96249023 33.83447266 19.62249023 33.83447266 20.30249023 33.83447266 C20.30249023 34.49447266 20.30249023 35.15447266 20.30249023 35.83447266 C20.90061523 36.10259766 21.49874023 36.37072266 22.11499023 36.64697266 C24.30096877 37.83364672 25.71581617 38.93046378 27.30249023 40.83447266 C27.30249023 41.49447266 27.30249023 42.15447266 27.30249023 42.83447266 C28.95249023 42.83447266 30.60249023 42.83447266 32.30249023 42.83447266 C32.30249023 43.82447266 32.30249023 44.81447266 32.30249023 45.83447266 C27.371684 44.5191011 24.01537761 42.34529859 20.23999023 39.02197266 C19.68706299 38.54856445 19.13413574 38.07515625 18.56445312 37.58740234 C15.48207201 34.90374368 12.55452863 32.11549194 9.70874023 29.18212891 C9.12745361 28.58311768 8.54616699 27.98410645 7.94726562 27.36694336 C6.82403384 26.1942399 5.7133534 25.00936211 4.61669922 23.81176758 C2.94497928 21.99427491 2.94497928 21.99427491 0.30249023 19.83447266 C-3.24231483 20.09222 -4.95437746 21.73591452 -7.36938477 24.21337891 C-8.03325195 24.88691406 -8.69711914 25.56044922 -9.38110352 26.25439453 C-10.06301758 26.96144531 -10.74493164 27.66849609 -11.44750977 28.39697266 C-12.14489258 29.10789062 -12.84227539 29.81880859 -13.56079102 30.55126953 C-15.27997557 32.30577979 -16.99176848 34.06690618 -18.69750977 35.83447266 C-19.19250977 34.34947266 -19.19250977 34.34947266 -19.69750977 32.83447266 C-19.03750977 32.83447266 -18.37750977 32.83447266 -17.69750977 32.83447266 C-17.69750977 31.84447266 -17.69750977 30.85447266 -17.69750977 29.83447266 C-17.03750977 29.83447266 -16.37750977 29.83447266 -15.69750977 29.83447266 C-15.38813477 28.65884766 -15.38813477 28.65884766 -15.07250977 27.45947266 C-13.69750977 24.83447266 -13.69750977 24.83447266 -10.57250977 23.52197266 C-9.14938477 23.18166016 -9.14938477 23.18166016 -7.69750977 22.83447266 C-7.69750977 21.84447266 -7.69750977 20.85447266 -7.69750977 19.83447266 C-7.03750977 19.83447266 -6.37750977 19.83447266 -5.69750977 19.83447266 C-5.36750977 18.84447266 -5.03750977 17.85447266 -4.69750977 16.83447266 C-4.08262695 16.84607422 -3.46774414 16.85767578 -2.83422852 16.86962891 C-1.62186523 16.88316406 -1.62186523 16.88316406 -0.38500977 16.89697266 C0.41549805 16.90857422 1.21600586 16.92017578 2.04077148 16.93212891 C4.47110357 16.9310512 4.47110357 16.9310512 7.30249023 15.83447266 C7.96249023 14.84447266 8.62249023 13.85447266 9.30249023 12.83447266 C8.53936523 11.88572266 7.77624023 10.93697266 6.98999023 9.95947266 C6.56073242 9.42580078 6.13147461 8.89212891 5.68920898 8.34228516 C4.17978479 6.58155159 4.17978479 6.58155159 1.30249023 4.83447266 C-2.07245009 5.16107978 -4.12108109 6.71812053 -6.69750977 8.83447266 C-7.02750977 8.50447266 -7.35750977 8.17447266 -7.69750977 7.83447266 C-8.25438477 8.88634766 -8.81125977 9.93822266 -9.38500977 11.02197266 C-11.38692584 14.52532579 -13.7265545 17.08090436 -16.69750977 19.83447266 C-17.58438477 20.74197266 -18.47125977 21.64947266 -19.38500977 22.58447266 C-22.43379255 25.55085591 -24.58876348 26.07759834 -28.69750977 26.83447266 C-23.61070437 20.73365828 -18.1914149 15.00875325 -12.63500977 9.33447266 C-11.75006836 8.40376953 -10.86512695 7.47306641 -9.95336914 6.51416016 C-9.09420898 5.64017578 -8.23504883 4.76619141 -7.34985352 3.86572266 C-6.18957642 2.66786133 -6.18957642 2.66786133 -5.00585938 1.44580078 C-2.69750977 -0.16552734 -2.69750977 -0.16552734 0 0 Z " fill="#173993" transform="translate(249.697509765625,258.16552734375)"/>
<path d="M0 0 C1.65 0 3.3 0 5 0 C3.90336186 7.90141837 -2.12736344 14.92190447 -7.78515625 20.3359375 C-20.5513051 29.92743557 -34.85229205 32.15204639 -50.3503418 32.14526367 C-51.46204239 32.14862228 -52.57374298 32.1519809 -53.71913147 32.15544128 C-57.37917207 32.16490748 -61.03916669 32.16689233 -64.69921875 32.16796875 C-67.25739053 32.17118471 -69.81556212 32.17454904 -72.37373352 32.17805481 C-77.73247782 32.18403552 -83.09120517 32.18593883 -88.44995117 32.18530273 C-94.61310008 32.18470315 -100.77616113 32.19523664 -106.93928784 32.2110464 C-112.90119132 32.22578615 -118.86306842 32.22928838 -124.82499123 32.22869301 C-127.3457659 32.22986734 -129.86654133 32.23425818 -132.38730431 32.24202538 C-135.92583721 32.25190662 -139.46414849 32.2489151 -143.00268555 32.24291992 C-144.02806427 32.24853943 -145.05344299 32.25415894 -146.1098938 32.25994873 C-155.70251517 32.21898971 -165.68347016 31.50262917 -174.5625 27.625 C-175.98755859 27.02558594 -175.98755859 27.02558594 -177.44140625 26.4140625 C-180.13547126 24.92512886 -181.94400461 23.27368901 -184 21 C-183.30132812 21.144375 -182.60265625 21.28875 -181.8828125 21.4375 C-180.97273437 21.623125 -180.06265625 21.80875 -179.125 22 C-178.22007812 22.185625 -177.31515625 22.37125 -176.3828125 22.5625 C-174.07592097 23.06019595 -174.07592097 23.06019595 -172 23 C-172 23.66 -172 24.32 -172 25 C-170.71390795 25.4939339 -169.42058372 25.96902769 -168.125 26.4375 C-167.40570313 26.70433594 -166.68640625 26.97117187 -165.9453125 27.24609375 C-157.9281287 29.29823761 -149.51185434 29.15925395 -141.28662109 29.19287109 C-140.15994019 29.20104858 -139.03325928 29.20922607 -137.87243652 29.21765137 C-134.17277533 29.24230423 -130.47315195 29.25896884 -126.7734375 29.2734375 C-125.50073627 29.27876118 -124.22803505 29.28408485 -122.91676712 29.28956985 C-117.56178771 29.31075147 -112.20682122 29.32988121 -106.85181236 29.34119225 C-99.23726634 29.35739601 -91.623233 29.3905403 -84.00888002 29.44759309 C-77.96794173 29.49127987 -71.92723319 29.50696828 -65.88612747 29.51332474 C-63.33709688 29.51999826 -60.7880726 29.53511709 -58.23914719 29.55921555 C-44.23126608 29.68410874 -32.07105787 29.39317766 -19 24 C-18.01 23.67 -17.02 23.34 -16 23 C-15.67 22.34 -15.34 21.68 -15 21 C-14 19 -14 19 -11 18 C-10.67 17.34 -10.34 16.68 -10 16 C-8.68 16 -7.36 16 -6 16 C-5.67 14.68 -5.34 13.36 -5 12 C-4.01 12 -3.02 12 -2 12 C-1.8453125 11.2265625 -1.8453125 11.2265625 -1.6875 10.4375 C-0.75736134 7.13973565 0.61395512 4.13366668 2 1 C1.01 0.505 1.01 0.505 0 0 Z " fill="#111C60" transform="translate(346,325)"/>
<path d="M0 0 C0.66 0 1.32 0 2 0 C2.80718219 5.64945077 3.13996356 11.10075335 3.11352539 16.80273438 C3.11367142 17.64270966 3.11381744 18.48268494 3.1139679 19.34811401 C3.11327683 22.09668654 3.10552256 24.84518946 3.09765625 27.59375 C3.0957892 29.51045698 3.09436665 31.42716444 3.09336853 33.34387207 C3.08956595 38.36781145 3.07975512 43.39172154 3.06866455 48.41564941 C3.05840169 53.55053308 3.0538605 58.68542152 3.04882812 63.8203125 C3.03813068 73.88022115 3.0210816 83.94010813 3 94 C-4.33228928 94.07601651 -11.66447707 94.12858578 -18.99707031 94.16479492 C-21.49190061 94.17988855 -23.98670435 94.20036548 -26.48144531 94.22631836 C-30.06582186 94.2626754 -33.64984782 94.27972078 -37.234375 94.29296875 C-38.35116638 94.30845261 -39.46795776 94.32393646 -40.61859131 94.33988953 C-41.65936829 94.34011612 -42.70014526 94.34034271 -43.77246094 94.34057617 C-44.68735291 94.34723801 -45.60224487 94.35389984 -46.54486084 94.36076355 C-49.44740565 93.93425723 -50.82660599 92.920677 -53 91 C-52.44538086 91.00523682 -51.89076172 91.01047363 -51.31933594 91.01586914 C-48.79623557 91.03671031 -46.27315336 91.04968282 -43.75 91.0625 C-42.44095703 91.07506836 -42.44095703 91.07506836 -41.10546875 91.08789062 C-40.26113281 91.09111328 -39.41679687 91.09433594 -38.546875 91.09765625 C-37.38430176 91.10551147 -37.38430176 91.10551147 -36.19824219 91.11352539 C-34.0002164 91.00001118 -32.11909756 90.56995468 -30 90 C-27.375 89.8125 -27.375 89.8125 -25 90 C-24.34 90.66 -23.68 91.32 -23 92 C-20.77341846 92.37004294 -20.77341846 92.37004294 -18.2109375 92.4140625 C-17.26992188 92.45273437 -16.32890625 92.49140625 -15.359375 92.53125 C-14.37453125 92.5621875 -13.3896875 92.593125 -12.375 92.625 C-11.38242187 92.66367187 -10.38984375 92.70234375 -9.3671875 92.7421875 C-6.91164615 92.8366314 -4.4561159 92.92219875 -2 93 C-2 92.01 -2 91.02 -2 90 C-1.34 90 -0.68 90 0 90 C0 60.3 0 30.6 0 0 Z " fill="#22428A" transform="translate(353,188)"/>
<path d="M0 0 C0.33 0.66 0.66 1.32 1 2 C0.33333333 4 -0.33333333 6 -1 8 C-3.97686609 21.35337074 -4.18104442 34.74526687 -4.31640625 48.35546875 C-4.337019 50.11095114 -4.35801646 51.86642905 -4.37937927 53.62190247 C-4.4341544 58.2068007 -4.48375712 62.79174034 -4.53222656 67.37670898 C-4.59168172 72.89692895 -4.65766056 78.41707445 -4.72252655 83.93723297 C-4.81997404 92.29144256 -4.90921342 100.64570342 -5 109 C11.17 109 27.34 109 44 109 C44 109.33 44 109.66 44 110 C27.17 110 10.34 110 -7 110 C-7.04010881 91.42516474 -7.04010881 91.42516474 -7.04882812 83.41015625 C-7.05476916 77.97508753 -7.06174043 72.5400359 -7.07543945 67.10498047 C-7.08643227 62.71533523 -7.09231096 58.32570837 -7.09487724 53.93605042 C-7.09670234 52.27461966 -7.10026495 50.61318973 -7.10573006 48.95176697 C-7.21724446 13.59301646 -7.21724446 13.59301646 0 0 Z " fill="#455C8D" transform="translate(148,173)"/>
<path d="M0 0 C15.19524118 -0.09369131 30.39046898 -0.16410018 45.58593464 -0.20724869 C52.64243066 -0.22782123 59.69874658 -0.25583927 66.75512695 -0.30175781 C73.5697264 -0.34608162 80.38413894 -0.36916334 87.19887352 -0.37950897 C89.79389572 -0.38687825 92.38890814 -0.40126857 94.98385048 -0.42292023 C98.62918509 -0.45211613 102.27375603 -0.45594909 105.91918945 -0.45410156 C107.51494812 -0.47567322 107.51494812 -0.47567322 109.14294434 -0.49768066 C118.93051976 -0.44428882 127.37375181 2.16502874 135.125 8.1875 C136.03507813 8.88230469 136.94515625 9.57710937 137.8828125 10.29296875 C140 12 140 12 141 13 C141.04080783 14.99958364 141.04254356 17.00045254 141 19 C137 14.25 137 14.25 137 12 C135.25364835 11.46706165 133.50272348 10.94909337 131.75 10.4375 C130.77546875 10.14746094 129.8009375 9.85742188 128.796875 9.55859375 C125.98574661 8.9971533 124.67551698 9.20089648 122 10 C121.01 9.505 121.01 9.505 120 9 C120 8.34 120 7.68 120 7 C120.66 7 121.32 7 122 7 C119.93243723 4.2027092 118.85559629 3.97307727 115.3125 3.3125 C114.219375 3.209375 113.12625 3.10625 112 3 C111.67 3.66 111.34 4.32 111 5 C110.01 4.505 110.01 4.505 109 4 C109 3.01 109 2.02 109 1 C108.04877007 1.24349686 108.04877007 1.24349686 107.07832336 1.49191284 C102.95006152 2.17329572 98.92395323 2.13914567 94.74682617 2.12939453 C93.82260361 2.13114685 92.89838104 2.13289917 91.94615173 2.13470459 C88.89507155 2.13910059 85.84404951 2.13619228 82.79296875 2.1328125 C80.66693613 2.13348636 78.54090358 2.13445707 76.41487122 2.13571167 C71.95878364 2.13718574 67.50271611 2.13504404 63.04663086 2.13037109 C57.3472467 2.1246844 51.64790975 2.12794794 45.94852734 2.13394356 C41.5569473 2.13756589 37.16537836 2.13640272 32.77379799 2.13381577 C30.67313951 2.13315058 28.57248002 2.13396059 26.47182274 2.13629532 C23.52830739 2.13884813 20.58486721 2.13494384 17.64135742 2.12939453 C16.34977722 2.13243088 16.34977722 2.13243088 15.03210449 2.13552856 C9.93446342 2.11781579 5.04640936 1.73067125 0 1 C0 0.67 0 0.34 0 0 Z " fill="#3B6DD3" transform="translate(200,149)"/>
<path d="M0 0 C-0.33 0.99 -0.66 1.98 -1 3 C-1.80824219 2.94199219 -2.61648437 2.88398438 -3.44921875 2.82421875 C-10.18651455 2.31751118 -10.18651455 2.31751118 -15.875 5.375 C-16.57625 6.24125 -17.2775 7.1075 -18 8 C-20.92055799 9.1806511 -23.75721626 9.94317112 -26.8203125 10.66015625 C-30.97462917 12.41068526 -33.09848269 14.83400878 -35.9375 18.25 C-36.44345703 18.81074219 -36.94941406 19.37148437 -37.47070312 19.94921875 C-39.98619579 22.92113778 -41.04958983 24.36209444 -40.7421875 28.31640625 C-40.49726563 29.20199219 -40.25234375 30.08757812 -40 31 C-41.1875 32.6875 -41.1875 32.6875 -43 34 C-43.721875 34.556875 -44.44375 35.11375 -45.1875 35.6875 C-45.785625 36.120625 -46.38375 36.55375 -47 37 C-47.24282524 32.87197093 -46.46437855 29.85362777 -45 26 C-44.608125 24.88625 -44.21625 23.7725 -43.8125 22.625 C-39.52227233 12.98260712 -30.52946933 7.01607418 -21.5625 2.125 C-14.58861488 -0.07727951 -7.26889615 -0.16153103 0 0 Z " fill="#3C68C1" transform="translate(193,149)"/>
<path d="M0 0 C-4.56431664 3.04287776 -7.22674764 4.25118805 -12.77832031 4.22705078 C-14.51967255 4.22682419 -14.51967255 4.22682419 -16.29620361 4.22659302 C-17.54423767 4.21627045 -18.79227173 4.20594788 -20.078125 4.1953125 C-22.00069122 4.19106766 -22.00069122 4.19106766 -23.96209717 4.18673706 C-27.36189639 4.17911788 -30.76152346 4.15948434 -34.16125488 4.1373291 C-37.63352124 4.11683358 -41.10581553 4.10772744 -44.578125 4.09765625 C-51.38548717 4.07623666 -58.19273531 4.04212156 -65 4 C-64.67 7.3 -64.34 10.6 -64 14 C-57.36548124 14.02487992 -50.73099016 14.04294466 -44.09643555 14.05493164 C-41.84350104 14.0599335 -39.59056974 14.0667371 -37.33764648 14.07543945 C-34.08316249 14.0876879 -30.82872174 14.09326994 -27.57421875 14.09765625 C-26.58105148 14.10281754 -25.58788422 14.10797882 -24.56462097 14.11329651 C-17.99141772 14.11381359 -11.53499581 13.70377799 -5 13 C-5.33 13.66 -5.66 14.32 -6 15 C-9.61224166 16.01455639 -13.06481098 16.12180751 -16.80004883 16.11352539 C-18.51125664 16.11341209 -18.51125664 16.11341209 -20.2570343 16.11329651 C-21.47803329 16.10813522 -22.69903229 16.10297394 -23.95703125 16.09765625 C-25.21513107 16.0962413 -26.4732309 16.09482635 -27.76945496 16.09336853 C-31.10178529 16.08872573 -34.43404632 16.07975228 -37.76635742 16.06866455 C-41.17170617 16.05840503 -44.5770621 16.05386121 -47.98242188 16.04882812 C-54.65496945 16.03780829 -61.32747524 16.02054835 -68 16 C-68 11.71 -68 7.42 -68 3 C-66.45731445 2.98541748 -64.91462891 2.97083496 -63.32519531 2.95581055 C-57.55495003 2.89746467 -51.78508027 2.82023549 -46.01513672 2.73754883 C-43.52659234 2.70446936 -41.037976 2.67638565 -38.54931641 2.65356445 C-34.95444308 2.61970492 -31.36021931 2.56737398 -27.765625 2.51171875 C-26.66825012 2.50532883 -25.57087524 2.4989389 -24.44024658 2.49235535 C-17.76360346 2.36770024 -11.87894775 1.43889316 -5.46917725 -0.45939636 C-3 -1 -3 -1 0 0 Z " fill="#1E3779" transform="translate(209,294)"/>
<path d="M0 0 C0.66 0 1.32 0 2 0 C1.98839844 1.22976563 1.97679687 2.45953125 1.96484375 3.7265625 C1.95545978 5.35937347 1.94636023 6.9921861 1.9375 8.625 C1.92912109 9.43324219 1.92074219 10.24148438 1.91210938 11.07421875 C1.8941045 15.50341918 2.10377338 19.63883424 3 24 C5.29160319 24.02692484 7.58329546 24.04636124 9.875 24.0625 C11.78925781 24.07990234 11.78925781 24.07990234 13.7421875 24.09765625 C16.88664652 24.23176569 16.88664652 24.23176569 19 23 C21.4345226 22.9376384 23.84025805 22.93284824 26.2734375 22.97265625 C27.75260181 22.98530513 29.2317686 22.9976659 30.7109375 23.00976562 C33.04369842 23.03456656 35.37633053 23.06251907 37.70898438 23.09594727 C39.95964367 23.12620062 42.21013936 23.14394212 44.4609375 23.16015625 C45.15585297 23.17361588 45.85076843 23.1870755 46.56674194 23.20094299 C51.37714049 23.22579767 54.22819963 22.6452432 57.75 19.375 C58.36875 18.694375 58.36875 18.694375 59 18 C61.475 18.99 61.475 18.99 64 20 C64 20.66 64 21.32 64 22 C56.28711254 25.82238063 49.74290107 26.54656346 41.2109375 26.390625 C40.02650055 26.38496521 38.8420636 26.37930542 37.62173462 26.37347412 C33.87239608 26.351246 30.12404527 26.30107297 26.375 26.25 C23.81902431 26.22991757 21.2630335 26.21166987 18.70703125 26.1953125 C12.47067589 26.15484296 6.23643165 26.07652063 0 26 C0 17.42 0 8.84 0 0 Z " fill="#183888" transform="translate(143,256)"/>
<path d="M0 0 C17.82 0 35.64 0 54 0 C54 4.95 54 9.9 54 15 C36.84 15 19.68 15 2 15 C2 14.67 2 14.34 2 14 C18.83 14 35.66 14 53 14 C52.505 8.555 52.505 8.555 52 3 C49.79703247 2.970271 49.79703247 2.970271 47.54956055 2.93994141 C42.10944237 2.86396628 36.66959451 2.77523636 31.22973633 2.68261719 C28.87367076 2.64429398 26.517546 2.60944706 24.16137695 2.578125 C20.77794213 2.53254726 17.39491592 2.47454048 14.01171875 2.4140625 C12.95538742 2.40251129 11.89905609 2.39096008 10.81071472 2.37905884 C9.33952934 2.3492543 9.33952934 2.3492543 7.83862305 2.31884766 C6.97480515 2.30552399 6.11098724 2.29220032 5.22099304 2.2784729 C3 2 3 2 0 0 Z " fill="#94AAD2" transform="translate(302,282)"/>
<path d="M0 0 C18.81 0 37.62 0 57 0 C57 4.29 57 8.58 57 13 C37.86 13 18.72 13 -1 13 C-1 12.67 -1 12.34 -1 12 C25.73 11.505 25.73 11.505 53 11 C54.03453058 6.23118866 54.03453058 6.23118866 53 2 C52.36550934 2.00444122 51.73101868 2.00888245 51.07730103 2.01345825 C44.49166102 2.0576008 37.90606283 2.08782852 31.3203125 2.10986328 C28.86033421 2.11993983 26.40036794 2.13360131 23.94042969 2.15087891 C20.41077715 2.17505461 16.88128253 2.1864664 13.3515625 2.1953125 C12.24632233 2.20563507 11.14108215 2.21595764 10.00234985 2.22659302 C8.98144257 2.22674408 7.96053528 2.22689514 6.90869141 2.22705078 C6.00712311 2.231492 5.10555481 2.23593323 4.17666626 2.24050903 C2 2 2 2 0 0 Z " fill="#18337B" transform="translate(299,297)"/>
<path d="M0 0 C2.88378017 1.06495694 4.08566135 2.36424487 6.01855469 4.73583984 C6.59992188 5.43451172 7.18128906 6.13318359 7.78027344 6.85302734 C9.03112207 8.47251399 10.19596956 10.15821216 11.33105469 11.86083984 C10.34105469 11.86083984 9.35105469 11.86083984 8.33105469 11.86083984 C6.95622762 10.2282327 5.62457802 8.55858922 4.33105469 6.86083984 C1.65924749 4.62299746 1.65924749 4.62299746 -0.60644531 5.04833984 C-2.97716055 5.98225797 -4.70685065 7.24911923 -6.66894531 8.86083984 C-6.99894531 8.53083984 -7.32894531 8.20083984 -7.66894531 7.86083984 C-8.22582031 8.91271484 -8.78269531 9.96458984 -9.35644531 11.04833984 C-11.35836139 14.55169297 -13.69799005 17.10727155 -16.66894531 19.86083984 C-17.55582031 20.76833984 -18.44269531 21.67583984 -19.35644531 22.61083984 C-22.4052281 25.57722309 -24.56019902 26.10396553 -28.66894531 26.86083984 C-23.58213992 20.76002546 -18.16285045 15.03512044 -12.60644531 9.36083984 C-11.72150391 8.43013672 -10.8365625 7.49943359 -9.92480469 6.54052734 C-9.06564453 5.66654297 -8.20648438 4.79255859 -7.32128906 3.89208984 C-6.16101196 2.69422852 -6.16101196 2.69422852 -4.97729492 1.47216797 C-2.66894531 -0.13916016 -2.66894531 -0.13916016 0 0 Z " fill="#314B90" transform="translate(249.6689453125,258.13916015625)"/>
<path d="M0 0 C3.63 1.32 7.26 2.64 11 4 C11 4.66 11 5.32 11 6 C11.66 6.33 12.32 6.66 13 7 C13 7.66 13 8.32 13 9 C12.34 9 11.68 9 11 9 C10.67 10.32 10.34 11.64 10 13 C9.01 13 8.02 13 7 13 C6.67 13.99 6.34 14.98 6 16 C7.299375 16.12375 8.59875 16.2475 9.9375 16.375 C12.15234375 16.5859375 12.15234375 16.5859375 14 17 C14.33 17.66 14.66 18.32 15 19 C6.50515863 18.96241221 0.3295066 16.11812484 -7 12 C-4.50907189 10.75453595 -3.58919267 11.2232422 -1 12 C-1 12.66 -1 13.32 -1 14 C2.36943107 11.75371262 2.25297792 11.62839298 3 8 C3.63654342 6.6520257 4.29605388 5.31403276 5 4 C3.68 4 2.36 4 1 4 C0.67 2.68 0.34 1.36 0 0 Z " fill="#CADAEF" transform="translate(289,277)"/>
<path d="M0 0 C0.6290625 0.19335938 1.258125 0.38671875 1.90625 0.5859375 C2.7621875 0.84632813 3.618125 1.10671875 4.5 1.375 C5.3353125 1.63023437 6.170625 1.88546875 7.03125 2.1484375 C8.0109375 2.42945313 8.990625 2.71046875 10 3 C11.11246094 3.33902344 12.22492188 3.67804688 13.37109375 4.02734375 C19.19234248 5.46594247 25.06544601 5.35584195 31.03125 5.4140625 C32.8787384 5.44311172 32.8787384 5.44311172 34.7635498 5.4727478 C38.67563066 5.53225787 42.5877414 5.57881495 46.5 5.625 C49.16148953 5.66215401 51.82292446 5.7022592 54.484375 5.7421875 C60.98947621 5.83793595 67.49465052 5.92306634 74 6 C73.67 6.66 73.34 7.32 73 8 C62.77 7.67 52.54 7.34 42 7 C42 7.66 42 8.32 42 9 C30.09508466 9.40584939 18.44285438 8.38310477 7 5 C6.34 5 5.68 5 5 5 C5 4.34 5 3.68 5 3 C3.35 2.67 1.7 2.34 0 2 C0 1.34 0 0.68 0 0 Z " fill="#2C4488" transform="translate(278,318)"/>
<path d="M0 0 C0.99 0.495 0.99 0.495 2 1 C-2.64203897 3.53309233 -6.65155992 5.46515599 -12 6 C-12 6.66 -12 7.32 -12 8 C-17.94 8 -23.88 8 -30 8 C-30 7.34 -30 6.68 -30 6 C-42.87 6.33 -55.74 6.66 -69 7 C-69 6.34 -69 5.68 -69 5 C-68.38327423 4.98969254 -67.76654846 4.97938507 -67.13113403 4.96876526 C-60.67391785 4.86003004 -54.21682253 4.74549268 -47.75976562 4.62768555 C-45.35451808 4.58455006 -42.94924411 4.54286132 -40.54394531 4.50268555 C-37.07348694 4.4444612 -33.60315897 4.38092088 -30.1328125 4.31640625 C-28.53688766 4.29133751 -28.53688766 4.29133751 -26.90872192 4.26576233 C-14.97131129 4.20924178 -14.97131129 4.20924178 -3.5 1.375 C-2.345 0.92125 -1.19 0.4675 0 0 Z " fill="#334C8E" transform="translate(214,319)"/>
<path d="M0 0 C0.66 0.66 1.32 1.32 2 2 C4.22658154 2.37004294 4.22658154 2.37004294 6.7890625 2.4140625 C8.20058594 2.47207031 8.20058594 2.47207031 9.640625 2.53125 C10.62546875 2.5621875 11.6103125 2.593125 12.625 2.625 C14.11386719 2.68300781 14.11386719 2.68300781 15.6328125 2.7421875 C18.08835385 2.8366314 20.5438841 2.92219875 23 3 C23 2.01 23 1.02 23 0 C23.99 0 24.98 0 26 0 C26 1.32 26 2.64 26 4 C18.9525442 4.07602812 11.90519406 4.12859061 4.85742188 4.16479492 C2.45959521 4.17988682 0.06179617 4.2003625 -2.3359375 4.22631836 C-5.78131933 4.26268311 -9.22633637 4.27972248 -12.671875 4.29296875 C-13.74491882 4.30845261 -14.81796265 4.32393646 -15.92352295 4.33988953 C-16.92425842 4.34011612 -17.9249939 4.34034271 -18.95605469 4.34057617 C-19.83541687 4.34723801 -20.71477905 4.35389984 -21.62078857 4.36076355 C-24.47206635 3.92841984 -25.85719183 2.88075025 -28 1 C-27.15236084 1.00785522 -27.15236084 1.00785522 -26.28759766 1.01586914 C-23.7334097 1.03662422 -21.17923947 1.0496554 -18.625 1.0625 C-17.73554688 1.07087891 -16.84609375 1.07925781 -15.9296875 1.08789062 C-15.07890625 1.09111328 -14.228125 1.09433594 -13.3515625 1.09765625 C-12.17327881 1.10551147 -12.17327881 1.10551147 -10.97119141 1.11352539 C-7.16474134 0.89430329 -4.09075931 -0.21914782 0 0 Z " fill="#19367F" transform="translate(328,278)"/>
<path d="M0 0 C1.65 0 3.3 0 5 0 C3.90391321 7.89744588 -2.12006344 14.90745213 -7.76953125 20.32421875 C-10.75129814 22.56446042 -13.93843934 24.30765003 -17.25 26 C-18.17244507 26.47312622 -18.17244507 26.47312622 -19.11352539 26.95581055 C-23.61805273 29.12731576 -23.61805273 29.12731576 -27 28 C-24.26782926 26.23212482 -21.95169627 24.98579302 -18.8125 24.0625 C-15.87896351 23.29407251 -15.87896351 23.29407251 -14.8125 20.9375 C-14.544375 20.298125 -14.27625 19.65875 -14 19 C-13.01 18.67 -12.02 18.34 -11 18 C-10.67 17.34 -10.34 16.68 -10 16 C-8.68 16 -7.36 16 -6 16 C-5.67 14.68 -5.34 13.36 -5 12 C-4.01 12 -3.02 12 -2 12 C-1.896875 11.484375 -1.79375 10.96875 -1.6875 10.4375 C-0.75736134 7.13973565 0.61395512 4.13366668 2 1 C1.34 0.67 0.68 0.34 0 0 Z " fill="#142768" transform="translate(346,325)"/>
<path d="M0 0 C0.66 0.33 1.32 0.66 2 1 C2 1.66 2 2.32 2 3 C2.66 3.33 3.32 3.66 4 4 C3.79375 4.7425 3.5875 5.485 3.375 6.25 C2.84774995 8.92906532 2.84774995 8.92906532 3.5 11.25 C4.96182198 13.34604147 4.96182198 13.34604147 8.125 13.4375 C13.00144859 14.14537157 16.0330131 16.20765338 20 19 C17.03056156 20.26943493 15.82989725 19.94483696 12.6875 18.92578125 C11.45316332 18.3999962 10.22405796 17.86178961 9 17.3125 C8.38382812 17.05533203 7.76765625 16.79816406 7.1328125 16.53320312 C3.37810876 14.89354173 0.5357515 13.24354622 -2 10 C-2.77129356 7.29058418 -2.81083322 4.83750169 -3 2 C-2.01 1.34 -1.02 0.68 0 0 Z M0 4 C1 6 1 6 1 6 Z " fill="#2A4898" transform="translate(284,262)"/>
<path d="M0 0 C0.66 0.66 1.32 1.32 2 2 C-0.09360868 6.75820155 -2.7511661 10.21499342 -6.4375 13.8125 C-6.91509766 14.30169922 -7.39269531 14.79089844 -7.88476562 15.29492188 C-12.5323867 19.90429093 -12.5323867 19.90429093 -16 20 C-16.99 19.34 -17.98 18.68 -19 18 C-18.67 17.34 -18.34 16.68 -18 16 C-16.35 16 -14.7 16 -13 16 C-12.67 14.35 -12.34 12.7 -12 11 C-11.01 11.33 -10.02 11.66 -9 12 C-9 11.01 -9 10.02 -9 9 C-8.34 9 -7.68 9 -7 9 C-6.67 8.01 -6.34 7.02 -6 6 C-5.34 6 -4.68 6 -4 6 C-4 5.01 -4 4.02 -4 3 C-3.01 3 -2.02 3 -1 3 C-0.67 2.01 -0.34 1.02 0 0 Z " fill="#214291" transform="translate(224,256)"/>
<path d="M0 0 C12.54 0 25.08 0 38 0 C38 0.33 38 0.66 38 1 C26.45 1 14.9 1 3 1 C3.66 2.98 4.32 4.96 5 7 C5.99 7.33 6.98 7.66 8 8 C8.3721042 9.32303717 8.70630173 10.65737935 9 12 C9.66 12.33 10.32 12.66 11 13 C11 13.66 11 14.32 11 15 C11.99 15.33 12.98 15.66 14 16 C14.6875 18.0625 14.6875 18.0625 15 20 C11.2467422 18.49701757 9.39792505 16.34954916 6.9375 13.1875 C6.26589844 12.33542969 5.59429687 11.48335938 4.90234375 10.60546875 C0 3.89117043 0 3.89117043 0 0 Z " fill="#11266E" transform="translate(146,325)"/>
<path d="M0 0 C2.30174017 1.20747025 3.53542252 2.53646564 5.15625 4.5625 C5.67703125 5.20316406 6.1978125 5.84382813 6.734375 6.50390625 C7.12109375 6.99761719 7.5078125 7.49132812 7.90625 8 C7.08125 7.79375 6.25625 7.5875 5.40625 7.375 C-0.06032556 6.78929548 -4.46137519 7.91175013 -9.09375 11 C-9.75375 10.34 -10.41375 9.68 -11.09375 9 C-9.69296602 7.46452525 -8.27254097 5.94694852 -6.84375 4.4375 C-5.66039062 3.16712891 -5.66039062 3.16712891 -4.453125 1.87109375 C-2.09375 0 -2.09375 0 0 0 Z " fill="#294486" transform="translate(249.09375,296)"/>
<path d="M0 0 C0.66 0.33 1.32 0.66 2 1 C1.48308594 1.50789062 0.96617187 2.01578125 0.43359375 2.5390625 C-1.55813209 4.62043549 -3.37429946 6.61935674 -5 9 C-4.86382428 12.24293584 -4.86382428 12.24293584 -4 15 C-5.1875 16.6875 -5.1875 16.6875 -7 18 C-7.721875 18.556875 -8.44375 19.11375 -9.1875 19.6875 C-9.785625 20.120625 -10.38375 20.55375 -11 21 C-11.24282524 16.87197093 -10.46437855 13.85362777 -9 10 C-8.54625 8.7625 -8.0925 7.525 -7.625 6.25 C-6 3 -6 3 -3.9375 1.625 C-3.298125 1.41875 -2.65875 1.2125 -2 1 C-1.34 0.67 -0.68 0.34 0 0 Z " fill="#345FBD" transform="translate(157,165)"/>
<path d="M0 0 C0.33 0.66 0.66 1.32 1 2 C0.33333333 4 -0.33333333 6 -1 8 C-3.31526313 17.82661297 -4.02335182 27.97377139 -5 38 C-5.33 38 -5.66 38 -6 38 C-6.50713834 24.24679828 -6.51978894 12.48157792 0 0 Z " fill="#3657A1" transform="translate(148,173)"/>
<path d="M0 0 C0.66 0.99 1.32 1.98 2 3 C-0.97 5.31 -3.94 7.62 -7 10 C-6.67 10.66 -6.34 11.32 -6 12 C-7.32 12.33 -8.64 12.66 -10 13 C-10 12.34 -10 11.68 -10 11 C-10.61875 11.20625 -11.2375 11.4125 -11.875 11.625 C-12.57625 11.74875 -13.2775 11.8725 -14 12 C-14.66 11.34 -15.32 10.68 -16 10 C-15.18015625 9.52949219 -14.3603125 9.05898438 -13.515625 8.57421875 C-12.43796875 7.95160156 -11.3603125 7.32898438 -10.25 6.6875 C-9.18265625 6.07261719 -8.1153125 5.45773437 -7.015625 4.82421875 C-4.54394837 3.32904649 -2.26439616 1.78623484 0 0 Z " fill="#1C3684" transform="translate(237,306)"/>
<path d="M0 0 C2.475 0.495 2.475 0.495 5 1 C3.98873047 1.76570313 3.98873047 1.76570313 2.95703125 2.546875 C-0.69310612 5.57499424 -3.98380012 8.87673462 -7.3125 12.25 C-7.95767578 12.8996875 -8.60285156 13.549375 -9.26757812 14.21875 C-10.8473635 15.81023749 -12.42475329 17.40402217 -14 19 C-14.33 18.01 -14.66 17.02 -15 16 C-14.34 16 -13.68 16 -13 16 C-13 15.01 -13 14.02 -13 13 C-12.34 13 -11.68 13 -11 13 C-10.79375 12.21625 -10.5875 11.4325 -10.375 10.625 C-9 8 -9 8 -5.875 6.6875 C-4.92625 6.460625 -3.9775 6.23375 -3 6 C-3 5.01 -3 4.02 -3 3 C-2.34 3 -1.68 3 -1 3 C-0.67 2.01 -0.34 1.02 0 0 Z " fill="#264489" transform="translate(245,275)"/>
<path d="M0 0 C5.49152542 0.61016949 5.49152542 0.61016949 7.875 2.4375 C9 4 9 4 9 6 C9.598125 6.268125 10.19625 6.53625 10.8125 6.8125 C12.99847854 7.99917406 14.41332594 9.09599113 16 11 C16 11.66 16 12.32 16 13 C17.65 13 19.3 13 21 13 C21 13.99 21 14.98 21 16 C15.603566 14.61818584 12.32894328 12.1585339 8.25 8.5625 C7.67378906 8.07201172 7.09757812 7.58152344 6.50390625 7.07617188 C3.92144624 4.84586551 1.90283318 2.85424978 0 0 Z " fill="#30498E" transform="translate(261,288)"/>
<path d="M0 0 C0 4.01847141 -1.22856766 5.15563523 -4 8 C-6.8125 9.125 -6.8125 9.125 -10 10 C-11.155 10.53625 -12.31 11.0725 -13.5 11.625 C-16.99028121 12.9961819 -19.2986895 13.2708276 -23 13 C-23 12.34 -23 11.68 -23 11 C-21.71416016 10.63648438 -21.71416016 10.63648438 -20.40234375 10.265625 C-9.08842233 7.12789281 -9.08842233 7.12789281 0 0 Z " fill="#BFD3EF" transform="translate(215,271)"/>
<path d="M0 0 C4.29165262 -0.02891949 8.58328036 -0.04677118 12.875 -0.0625 C14.70998047 -0.07506836 14.70998047 -0.07506836 16.58203125 -0.08789062 C18.33193359 -0.09272461 18.33193359 -0.09272461 20.1171875 -0.09765625 C21.73536377 -0.10551147 21.73536377 -0.10551147 23.38623047 -0.11352539 C26 0 26 0 28 1 C27.48964169 5.3890815 26.47785723 8.33708062 24 12 C23.01 11.67 22.02 11.34 21 11 C21.66 11 22.32 11 23 11 C23.144375 10.4225 23.28875 9.845 23.4375 9.25 C23.95833333 7.16666667 24.47916667 5.08333333 25 3 C19.52140877 2.12489617 14.10142201 1.70975966 8.5625 1.4375 C7.32209961 1.37272461 7.32209961 1.37272461 6.05664062 1.30664062 C4.03790451 1.20161967 2.01897049 1.10041441 0 1 C0 0.67 0 0.34 0 0 Z " fill="#102878" transform="translate(320,325)"/>
<path d="M0 0 C6.21375982 5.32607984 10.3490155 12.75419628 11 21 C10.34 20.67 9.68 20.34 9 20 C9 18.68 9 17.36 9 16 C8.01 16 7.02 16 6 16 C5.67 13.69 5.34 11.38 5 9 C4.34 9 3.68 9 3 9 C3 8.34 3 7.68 3 7 C2.34 7 1.68 7 1 7 C0.67 4.69 0.34 2.38 0 0 Z " fill="#3458A7" transform="translate(343,166)"/>
<path d="M0 0 C0.66 0.99 1.32 1.98 2 3 C-1.95096978 3.04939662 -5.9018203 3.08571755 -9.85302734 3.10986328 C-11.8591136 3.12488107 -13.86511324 3.15028981 -15.87109375 3.17578125 C-17.12792969 3.18222656 -18.38476562 3.18867188 -19.6796875 3.1953125 C-20.84226074 3.20578613 -22.00483398 3.21625977 -23.20263672 3.22705078 C-26 3 -26 3 -28 1 C-27.15236084 1.00785522 -27.15236084 1.00785522 -26.28759766 1.01586914 C-23.7334097 1.03662422 -21.17923947 1.0496554 -18.625 1.0625 C-17.73554688 1.07087891 -16.84609375 1.07925781 -15.9296875 1.08789062 C-15.07890625 1.09111328 -14.228125 1.09433594 -13.3515625 1.09765625 C-12.17327881 1.10551147 -12.17327881 1.10551147 -10.97119141 1.11352539 C-7.13274203 0.89246037 -4.13347605 -0.29524829 0 0 Z " fill="#13358E" transform="translate(328,278)"/>
<path d="M0 0 C0 4.0333534 -1.60879918 5.83517538 -4 9 C-4.66 9 -5.32 9 -6 9 C-6 9.66 -6 10.32 -6 11 C-7.65002828 12.35386936 -9.3174387 13.68678142 -11 15 C-11.33 15.66 -11.66 16.32 -12 17 C-13.32 16.67 -14.64 16.34 -16 16 C-10.72 10.72 -5.44 5.44 0 0 Z " fill="#CFE0F3" transform="translate(234,252)"/>
<path d="M0 0 C5.44215408 1.97193505 9.96034385 4.83086769 14 9 C14.5625 12.4375 14.5625 12.4375 14 15 C10 10.25 10 10.25 10 8 C7.34771188 6.92474806 4.71631546 5.90543849 2 5 C2 4.34 2 3.68 2 3 C1.34 2.67 0.68 2.34 0 2 C0 1.34 0 0.68 0 0 Z " fill="#3A64B8" transform="translate(327,153)"/>
<path d="M0 0 C2.5625 -0.5 2.5625 -0.5 6 0 C8.66446231 2.41150703 10.77825676 5.18650917 13 8 C13.98411194 9.01563955 14.97863341 10.0218332 16 11 C13.0625 10.1875 13.0625 10.1875 10 9 C9.67 8.01 9.34 7.02 9 6 C8.01 6.33 7.02 6.66 6 7 C3 3.25 3 3.25 3 1 C1.68 1.33 0.36 1.66 -1 2 C-0.67 1.34 -0.34 0.68 0 0 Z " fill="#D4E2F3" transform="translate(246,240)"/>
<path d="M0 0 C0.33 0.99 0.66 1.98 1 3 C1.99 3.33 2.98 3.66 4 4 C3.67 4.66 3.34 5.32 3 6 C3.99 6.33 4.98 6.66 6 7 C5.0925 6.814375 4.185 6.62875 3.25 6.4375 C0.25209026 6.03393523 -1.19162994 6.19760855 -4 7 C-4.66 6.67 -5.32 6.34 -6 6 C-6 5.34 -6 4.68 -6 4 C-5.34 4 -4.68 4 -4 4 C-4.33 3.01 -4.66 2.02 -5 1 C-3.35 0.67 -1.7 0.34 0 0 Z " fill="#3065D3" transform="translate(326,152)"/>
<path d="M0 0 C-5.13215292 3.59599831 -10.03797399 6.97291116 -16 9 C-16.99 8.67 -17.98 8.34 -19 8 C-16.26606274 6.23098177 -13.85939063 4.95403155 -10.75 3.9375 C-7.86381294 3.31285945 -7.86381294 3.31285945 -7 1 C-2.44155844 -1.22077922 -2.44155844 -1.22077922 0 0 Z " fill="#14225B" transform="translate(338,345)"/>
<path d="M0 0 C5.73685896 2.21651369 7.5693078 4.55524946 10 10 C9.67 10.99 9.34 11.98 9 13 C7.67532989 11.78395887 6.36567595 10.55154778 5.0625 9.3125 C4.33160156 8.62800781 3.60070312 7.94351562 2.84765625 7.23828125 C0.80570157 4.76462368 0.34750001 3.14956359 0 0 Z " fill="#304D94" transform="translate(272,258)"/>
<path d="M0 0 C2.475 0.99 2.475 0.99 5 2 C5 2.66 5 3.32 5 4 C3.40084119 4.69906942 1.79544955 5.38389468 0.1875 6.0625 C-0.70582031 6.44535156 -1.59914062 6.82820313 -2.51953125 7.22265625 C-5 8 -5 8 -8 7 C-6.72530598 4.45061196 -5.50840774 4.25420387 -3 3 C-1.29078411 1.4587688 -1.29078411 1.4587688 0 0 Z " fill="#223E8D" transform="translate(202,274)"/>
<path d="M0 0 C-3.04764329 2.56491965 -5.72457897 3.72655439 -9.5625 4.75 C-10.98755859 5.14445312 -10.98755859 5.14445312 -12.44140625 5.546875 C-15 6 -15 6 -18 5 C-15.67305465 3.98196141 -13.34226131 2.98181254 -11 2 C-10.29359375 1.70222656 -9.5871875 1.40445312 -8.859375 1.09765625 C-3.34949622 -1.11649874 -3.34949622 -1.11649874 0 0 Z " fill="#BED3EF" transform="translate(212,290)"/>
<path d="M0 0 C-4.36225141 2.90816761 -6.94260622 4.26466826 -12.25 4.125 C-13.14203125 4.10695313 -14.0340625 4.08890625 -14.953125 4.0703125 C-15.96632812 4.03550781 -15.96632812 4.03550781 -17 4 C-14.4691537 1.4691537 -12.51862293 1.17129418 -9.0625 0.3125 C-8.00160156 0.04050781 -6.94070312 -0.23148437 -5.84765625 -0.51171875 C-3 -1 -3 -1 0 0 Z " fill="#253F84" transform="translate(209,294)"/>
<path d="M0 0 C0 4.35243435 -2.64470425 6.49881137 -5.375 9.625 C-6.13683594 10.5221875 -6.13683594 10.5221875 -6.9140625 11.4375 C-10.71335565 15.85667783 -10.71335565 15.85667783 -13 17 C-11.51299286 12.17170572 -8.78716744 9.2512231 -5.375 5.6875 C-4.6015625 4.86282227 -4.6015625 4.86282227 -3.8125 4.02148438 C-2.54799382 2.67501946 -1.27485078 1.33667465 0 0 Z " fill="#709FEC" transform="translate(217,221)"/>
<path d="M0 0 C1.32 0.33 2.64 0.66 4 1 C0.04 4.96 -3.92 8.92 -8 13 C-8.33 12.01 -8.66 11.02 -9 10 C-7.71034824 8.62437146 -6.37310707 7.29233607 -5 6 C-4.34 6 -3.68 6 -3 6 C-2.690625 5.195625 -2.38125 4.39125 -2.0625 3.5625 C-1 1 -1 1 0 0 Z " fill="#D6E4F9" transform="translate(236,265)"/>
<path d="M0 0 C0.99 0.33 1.98 0.66 3 1 C1.98823563 4.40320742 1.35156418 5.75725331 -1.625 7.8125 C-2.40875 8.204375 -3.1925 8.59625 -4 9 C-4.33 8.01 -4.66 7.02 -5 6 C-3.59554165 3.7363436 -1.8032087 1.9791315 0 0 Z " fill="#D9E8F0" transform="translate(234,292)"/>
<path d="M0 0 C0.33 0.66 0.66 1.32 1 2 C0.54625 2.4125 0.0925 2.825 -0.375 3.25 C-2.09193414 4.88256049 -2.09193414 4.88256049 -2.75 6.9375 C-4.72366841 10.19405287 -7.6533474 11.26469865 -11 13 C-10.34 11.68 -9.68 10.36 -9 9 C-8.34 9 -7.68 9 -7 9 C-6.731875 8.236875 -6.46375 7.47375 -6.1875 6.6875 C-4.70915696 3.34177629 -3.25870301 1.6293515 0 0 Z " fill="#173A99" transform="translate(245,264)"/>
<path d="M0 0 C5.8022175 -0.36263859 9.63999211 0.74315457 15 3 C15 3.33 15 3.66 15 4 C9.5814234 4.22577402 5.22512279 3.46670113 0 2 C0 1.34 0 0.68 0 0 Z " fill="#3E67BD" transform="translate(311,149)"/>
<path d="M0 0 C-0.33 2.31 -0.66 4.62 -1 7 C-3.475 6.01 -3.475 6.01 -6 5 C-6 4.34 -6 3.68 -6 3 C-6.66 3 -7.32 3 -8 3 C-8 2.01 -8 1.02 -8 0 C-5.13822943 -1.43088528 -3.06624227 -0.59991697 0 0 Z " fill="#1D42A2" transform="translate(264,241)"/>
<path d="M0 0 C0.61875 0.144375 1.2375 0.28875 1.875 0.4375 C6.22537017 1.22056663 10.60021907 1.59846659 15 2 C14.34 3.32 13.68 4.64 13 6 C12.175 5.71125 11.35 5.4225 10.5 5.125 C6.69204819 3.90101549 2.88729173 2.9383118 -1 2 C-0.67 1.34 -0.34 0.68 0 0 Z " fill="#071C76" transform="translate(161,344)"/>
<path d="M0 0 C5.97897503 -0.74737188 9.32379721 1.6768102 14 5 C10.30962722 6.37095624 8.29116165 5.60010967 4.75 4.0625 C3.85796875 3.68222656 2.9659375 3.30195313 2.046875 2.91015625 C1.37140625 2.60980469 0.6959375 2.30945313 0 2 C0 1.34 0 0.68 0 0 Z " fill="#26418A" transform="translate(290,276)"/>
<path d="M0 0 C7.75 1.625 7.75 1.625 10 5 C13.56769552 5.73606499 13.56769552 5.73606499 17 6 C16.01 7.485 16.01 7.485 15 9 C9.26800429 7.53025751 4.66416601 4.55513098 0 1 C0 0.67 0 0.34 0 0 Z " fill="#A7BDE3" transform="translate(264,309)"/>
<path d="M0 0 C0.33 0.99 0.66 1.98 1 3 C-0.109375 4.7890625 -0.109375 4.7890625 -1.75 6.625 C-2.28109375 7.23601562 -2.8121875 7.84703125 -3.359375 8.4765625 C-5 10 -5 10 -8 11 C-8 7.45459812 -7.40614728 6.93992636 -5.125 4.375 C-4.59132812 3.76398438 -4.05765625 3.15296875 -3.5078125 2.5234375 C-2 1 -2 1 0 0 Z " fill="#D4E5F4" transform="translate(244,242)"/>
<path d="M0 0 C10.55808656 0.77904328 10.55808656 0.77904328 15 3 C15 3.66 15 4.32 15 5 C9.54520815 4.43179252 5.08940744 3.05362055 0 1 C0 0.67 0 0.34 0 0 Z " fill="#254086" transform="translate(282,304)"/>
<path d="M0 0 C0.78117187 0.19916016 0.78117187 0.19916016 1.578125 0.40234375 C4.62815201 1.1550117 7.68842047 1.85833671 10.75 2.5625 C12.50570313 2.96662109 12.50570313 2.96662109 14.296875 3.37890625 C15.18890625 3.58386719 16.0809375 3.78882813 17 4 C17 4.33 17 4.66 17 5 C10.54107286 5.40368295 5.93891422 4.5915262 0 2 C0 1.34 0 0.68 0 0 Z " fill="#294489" transform="translate(287,292)"/>
<path d="M0 0 C1.9375 0.3125 1.9375 0.3125 4 1 C4.33 1.99 4.66 2.98 5 4 C6.32 4 7.64 4 9 4 C9 4.66 9 5.32 9 6 C9.66 6 10.32 6 11 6 C11 6.99 11 7.98 11 9 C5.70841026 7.59928507 3.22521956 4.14512755 0 0 Z " fill="#BFD3EE" transform="translate(271,279)"/>
<path d="M0 0 C3.80635497 3.20760251 7.54563567 6.40746109 11 10 C8.70703125 10.2421875 8.70703125 10.2421875 6 10 C4.19921875 8.3203125 4.19921875 8.3203125 2.6875 6.125 C1.91986328 5.04605469 1.91986328 5.04605469 1.13671875 3.9453125 C0 2 0 2 0 0 Z " fill="#D6E7F7" transform="translate(277,267)"/>
<path d="M0 0 C-0.639375 0.28875 -1.27875 0.5775 -1.9375 0.875 C-4.15206079 1.82823451 -4.15206079 1.82823451 -5 4 C-5.721875 3.979375 -6.44375 3.95875 -7.1875 3.9375 C-9.91925138 3.99820559 -12.34256091 4.39258535 -15 5 C-12.6050586 2.18614146 -10.46053694 1.26695912 -6.9375 0.25 C-5.62072266 -0.14445313 -5.62072266 -0.14445313 -4.27734375 -0.546875 C-2 -1 -2 -1 0 0 Z " fill="#4F86E4" transform="translate(228,183)"/>
<path d="M0 0 C0.91007813 0.00902344 1.82015625 0.01804687 2.7578125 0.02734375 C3.45648438 0.03894531 4.15515625 0.05054688 4.875 0.0625 C-0.6790573 3.76520486 -4.58004337 4.28436294 -11.125 4.0625 C-7.11558587 0.98861583 -5.08389208 -0.0651781 0 0 Z " fill="#AFC5EC" transform="translate(209.125,318.9375)"/>
<path d="M0 0 C2 3 2 3 2.8125 5.625 C3.204375 6.40875 3.59625 7.1925 4 8 C6.54775306 8.89386164 6.54775306 8.89386164 9 9 C9 9.66 9 10.32 9 11 C2.25 10.25 2.25 10.25 0 8 C-0.26991906 5.31160615 -0.08737357 2.70858064 0 0 Z " fill="#8AB7F9" transform="translate(316,248)"/>
<path d="M0 0 C1.65 0 3.3 0 5 0 C2.84545751 2.35716404 0.80280126 3.78966144 -2.0625 5.1875 C-3.10083984 5.70376953 -3.10083984 5.70376953 -4.16015625 6.23046875 C-6 7 -6 7 -8 7 C-8 6.34 -8 5.68 -8 5 C-5.04518508 2.25624329 -4.22528092 2 0 2 C0 1.34 0 0.68 0 0 Z " fill="#BBD2F5" transform="translate(225,311)"/>
<path d="M0 0 C0.66 0.99 1.32 1.98 2 3 C-0.34914492 5.34914492 -1.95679446 5.73140357 -5.125 6.625 C-6.03507813 6.88539063 -6.94515625 7.14578125 -7.8828125 7.4140625 C-8.58148438 7.60742188 -9.28015625 7.80078125 -10 8 C-6.97727468 4.74475735 -3.74281699 2.38179263 0 0 Z " fill="#2B448A" transform="translate(237,306)"/>
<path d="M0 0 C0.66 0 1.32 0 2 0 C2 0.66 2 1.32 2 2 C2.556875 2.103125 3.11375 2.20625 3.6875 2.3125 C6.4769101 3.14178408 8.6139064 4.34299056 11 6 C11 6.66 11 7.32 11 8 C6.01780786 6.72548573 3.37464528 4.87091665 0 1 C0 0.67 0 0.34 0 0 Z " fill="#34509A" transform="translate(256,244)"/>
<path d="M0 0 C-0.33 0.99 -0.66 1.98 -1 3 C-5.62 3 -10.24 3 -15 3 C-14.67 2.34 -14.34 1.68 -14 1 C-9.30643695 0.06128739 -4.77567869 -0.09746283 0 0 Z " fill="#366BD1" transform="translate(193,149)"/>
<path d="M0 0 C0.33 0 0.66 0 1 0 C1.19294408 4.82360189 0.75747614 8.49646738 -1 13 C-1.66 12.67 -2.32 12.34 -3 12 C-2.70703125 9.98177083 -2.4140625 7.96354167 -2.12109375 5.9453125 C-1.8315703 3.91859333 -1.8315703 3.91859333 -3 2 C-2.01 2 -1.02 2 0 2 C0 1.34 0 0.68 0 0 Z " fill="#D2D5E4" transform="translate(354,311)"/>
<path d="M0 0 C4.29 0.99 8.58 1.98 13 3 C13 3.33 13 3.66 13 4 C11.39884424 4.2493357 9.79379841 4.47378648 8.1875 4.6875 C7.29417969 4.81511719 6.40085937 4.94273437 5.48046875 5.07421875 C3 5 3 5 1.17578125 3.64453125 C0 2 0 2 0 0 Z " fill="#AEC6EA" transform="translate(285,306)"/>
<path d="M0 0 C1.32 0.66 2.64 1.32 4 2 C3.29875 2.391875 2.5975 2.78375 1.875 3.1875 C-1.36074432 5.22742577 -4.10257782 7.50686929 -7 10 C-6.67 8.68 -6.34 7.36 -6 6 C-5.34 6 -4.68 6 -4 6 C-3.71125 5.38125 -3.4225 4.7625 -3.125 4.125 C-2 2 -2 2 0 0 Z " fill="#C4D8F3" transform="translate(246,294)"/>
<path d="M0 0 C0.33 0.66 0.66 1.32 1 2 C-1.23795825 5.35693737 -2.2189697 5.91970563 -6 7 C-7.32 6.67 -8.64 6.34 -10 6 C-6.7 4.02 -3.4 2.04 0 0 Z " fill="#354F8E" transform="translate(220,285)"/>
<path d="M0 0 C1.32 0.33 2.64 0.66 4 1 C2.56351736 2.12629875 1.12577415 3.2509899 -0.3125 4.375 C-1.11300781 5.00148437 -1.91351563 5.62796875 -2.73828125 6.2734375 C-4.44663212 7.57756718 -6.21172726 8.80781817 -8 10 C-7.61402985 7.20171644 -7.19863427 6.1794116 -5.0625 4.25 C-3 3 -3 3 -1 3 C-0.67 2.01 -0.34 1.02 0 0 Z " fill="#305EB5" transform="translate(219,217)"/>
<path d="M0 0 C0.66 0.33 1.32 0.66 2 1 C-0.05233685 3.2477975 -1.00667261 4.0022242 -4 5 C-5.72795352 5.06802967 -7.45835365 5.08495645 -9.1875 5.0625 C-10.53908203 5.04896484 -10.53908203 5.04896484 -11.91796875 5.03515625 C-12.60503906 5.02355469 -13.29210937 5.01195312 -14 5 C-14 4.67 -14 4.34 -14 4 C-13.32453125 3.87882812 -12.6490625 3.75765625 -11.953125 3.6328125 C-10.61507812 3.38144531 -10.61507812 3.38144531 -9.25 3.125 C-8.36828125 2.96257812 -7.4865625 2.80015625 -6.578125 2.6328125 C-3.99249343 2.10389584 -3.99249343 2.10389584 -1.796875 0.8671875 C-0.90742188 0.43792969 -0.90742188 0.43792969 0 0 Z " fill="#9EB7E0" transform="translate(212,305)"/>
<path d="M0 0 C0.66 0.33 1.32 0.66 2 1 C-0.25 3.5 -0.25 3.5 -3 6 C-7 6 -7 6 -9 5 C-3.375 1.125 -3.375 1.125 0 0 Z " fill="#3769C6" transform="translate(220,198)"/>
<path d="M0 0 C0.66 0.99 1.32 1.98 2 3 C1.0925 2.814375 0.185 2.62875 -0.75 2.4375 C-3.68314324 2.04265379 -5.2644657 2.05308428 -8 3 C-8.33 2.01 -8.66 1.02 -9 0 C-5.85135005 -1.57432497 -3.35512575 -0.71895552 0 0 Z " fill="#16358A" transform="translate(255,301)"/>
<path d="M0 0 C1.65 0.33 3.3 0.66 5 1 C1.66666667 3.66666667 -1.66666667 6.33333333 -5 9 C-5 8.01 -5 7.02 -5 6 C-4.34 6 -3.68 6 -3 6 C-3 5.01 -3 4.02 -3 3 C-2.34 3 -1.68 3 -1 3 C-0.67 2.01 -0.34 1.02 0 0 Z " fill="#2E4C8F" transform="translate(245,275)"/>
<path d="M0 0 C1.32 0 2.64 0 4 0 C4 4.29 4 8.58 4 13 C3.34 13 2.68 13 2 13 C2.33 9.7 2.66 6.4 3 3 C2.01 2.67 1.02 2.34 0 2 C0 1.34 0 0.68 0 0 Z " fill="#2C3D76" transform="translate(352,297)"/>
<path d="M0 0 C0.33 0.66 0.66 1.32 1 2 C-1.45454545 7.72727273 -1.45454545 7.72727273 -4 9 C-4.125 3.25 -4.125 3.25 -3 1 C-2.01 0.67 -1.02 0.34 0 0 Z " fill="#214DA3" transform="translate(218,241)"/>
<path d="M0 0 C0.99 0 1.98 0 3 0 C3.33 2.97 3.66 5.94 4 9 C3.34 9 2.68 9 2 9 C0.50178941 5.62902617 0 3.79557881 0 0 Z " fill="#244FA9" transform="translate(309,234)"/>
<path d="M0 0 C0.33 2.31 0.66 4.62 1 7 C1.66 7 2.32 7 3 7 C2.67 7.66 2.34 8.32 2 9 C1.01 8.34 0.02 7.68 -1 7 C-1.99 7.495 -1.99 7.495 -3 8 C-2.67 6.35 -2.34 4.7 -2 3 C-2.66 3 -3.32 3 -4 3 C-4 2.34 -4 1.68 -4 1 C-1 0 -1 0 0 0 Z " fill="#2D5FCB" transform="translate(348,175)"/>
<path d="M0 0 C0 1.65 0 3.3 0 5 C-1.65 5.66 -3.3 6.32 -5 7 C-5 3 -5 3 -3.625 1.25 C-2 0 -2 0 0 0 Z " fill="#4064B2" transform="translate(160,160)"/>
<path d="M0 0 C2.34914492 2.34914492 2.73140357 3.95679446 3.625 7.125 C3.88539063 8.03507812 4.14578125 8.94515625 4.4140625 9.8828125 C4.70410156 10.93082031 4.70410156 10.93082031 5 12 C4.01 12 3.02 12 2 12 C0.40861915 7.82262526 -0.21278058 4.46839215 0 0 Z " fill="#CBCFDD" transform="translate(142,312)"/>
<path d="M0 0 C0.99 0 1.98 0 3 0 C5.09230769 4.43076923 5.09230769 4.43076923 4.625 7.3125 C4.41875 7.869375 4.2125 8.42625 4 9 C0 3.375 0 3.375 0 0 Z " fill="#26326B" transform="translate(146,325)"/>
<path d="M0 0 C1.65 0 3.3 0 5 0 C5.12375 0.804375 5.2475 1.60875 5.375 2.4375 C5.684375 3.7059375 5.684375 3.7059375 6 5 C6.66 5.33 7.32 5.66 8 6 C5 6 5 6 3.61328125 4.6875 C2.40885417 3.125 1.20442708 1.5625 0 0 Z " fill="#334D8E" transform="translate(254,281)"/>
<path d="M0 0 C0.99 0.66 1.98 1.32 3 2 C-2.75 7 -2.75 7 -5 7 C-3.70700306 4.11562221 -2.34058637 2.12780579 0 0 Z " fill="#2F498E" transform="translate(227,293)"/>
<path d="M0 0 C-2.42130331 2.42130331 -3.80111377 2.52840504 -7.125 3.125 C-8.03507813 3.29257813 -8.94515625 3.46015625 -9.8828125 3.6328125 C-10.58148438 3.75398437 -11.28015625 3.87515625 -12 4 C-9.8923766 -0.2152468 -4.26296995 -1.87570678 0 0 Z " fill="#4160AF" transform="translate(179,151)"/>
<path d="M0 0 C2.31 0 4.62 0 7 0 C6.67 0.99 6.34 1.98 6 3 C4.02 3 2.04 3 0 3 C0 2.01 0 1.02 0 0 Z " fill="#C4D8FA" transform="translate(194,310)"/>
<path d="M0 0 C0.66 0.33 1.32 0.66 2 1 C1.67 1.5775 1.34 2.155 1 2.75 C-0.27075898 5.19883862 -0.27075898 5.19883862 0 9 C-0.66 9 -1.32 9 -2 9 C-2.33 6.69 -2.66 4.38 -3 2 C-2.01 1.34 -1.02 0.68 0 0 Z " fill="#193D97" transform="translate(284,262)"/>
<path d="M0 0 C0.99 0 1.98 0 3 0 C2.65120368 3.25543229 1.97866739 4.01873107 -0.5625 6.25 C-1.366875 6.8275 -2.17125 7.405 -3 8 C-2.67 6.68 -2.34 5.36 -2 4 C-1.34 4 -0.68 4 0 4 C0 2.68 0 1.36 0 0 Z " fill="#375596" transform="translate(239,242)"/>
<path d="M0 0 C0.8125 1.6875 0.8125 1.6875 1 4 C-1.4375 6.75 -1.4375 6.75 -4 9 C-4 5.00095031 -2.27413033 3.19799578 0 0 Z " fill="#6F9FEA" transform="translate(184,212)"/>
<path d="M0 0 C0.99 0.33 1.98 0.66 3 1 C2.01 2.32 1.02 3.64 0 5 C-1.65 4.67 -3.3 4.34 -5 4 C-2.6875 1.9375 -2.6875 1.9375 0 0 Z " fill="#3265D1" transform="translate(174,153)"/>
<path d="M0 0 C1.65 0 3.3 0 5 0 C4.125 4.75 4.125 4.75 3 7 C2.34 7 1.68 7 1 7 C1.33 5.02 1.66 3.04 2 1 C1.34 0.67 0.68 0.34 0 0 Z " fill="#2A366E" transform="translate(346,325)"/>
<path d="M0 0 C2.31 1.98 4.62 3.96 7 6 C6.01 7.485 6.01 7.485 5 9 C4.16094435 7.87926138 3.32892169 6.75325453 2.5 5.625 C2.0359375 4.99851562 1.571875 4.37203125 1.09375 3.7265625 C0 2 0 2 0 0 Z " fill="#2F4988" transform="translate(261,270)"/>
<path d="M0 0 C0.33 0.66 0.66 1.32 1 2 C-0.4375 4.625 -0.4375 4.625 -2 7 C-3.32 6.67 -4.64 6.34 -6 6 C-4.02 4.02 -2.04 2.04 0 0 Z " fill="#3F5797" transform="translate(241,264)"/>
<path d="M0 0 C0.66 0.33 1.32 0.66 2 1 C0.68 3.64 -0.64 6.28 -2 9 C-3.10102197 5.69693408 -2.95067299 4.28414305 -2 1 C-1.34 0.67 -0.68 0.34 0 0 Z " fill="#315FB5" transform="translate(178,218)"/>
<path d="M0 0 C2 1.125 2 1.125 4 3 C4.25 6.1875 4.25 6.1875 4 9 C3.67 8.34 3.34 7.68 3 7 C2.34 7 1.68 7 1 7 C0.67 4.69 0.34 2.38 0 0 Z " fill="#315FB7" transform="translate(343,166)"/>
<path d="M0 0 C0.66 1.32 1.32 2.64 2 4 C1.01 4.495 1.01 4.495 0 5 C-2.625 3.5625 -2.625 3.5625 -5 2 C-2 0 -2 0 0 0 Z " fill="#C4D7EE" transform="translate(266,305)"/>
<path d="M0 0 C2.91387197 0.2913872 3.82565583 0.79452294 5.75 3.0625 C6.1625 3.701875 6.575 4.34125 7 5 C3.09161134 5 1.88405893 3.49432124 -1 1 C-0.67 0.67 -0.34 0.34 0 0 Z " fill="#C7DAF8" transform="translate(247,277)"/>
<path d="M0 0 C0.33 0.66 0.66 1.32 1 2 C-0.4375 4.625 -0.4375 4.625 -2 7 C-3.32 6.67 -4.64 6.34 -6 6 C-4.02 4.02 -2.04 2.04 0 0 Z " fill="#C0D3EE" transform="translate(224,262)"/>
<path d="M0 0 C2.31 0.33 4.62 0.66 7 1 C7 1.66 7 2.32 7 3 C3.98968256 3.93423645 3.13349732 4.04449911 0 3 C0 2.01 0 1.02 0 0 Z " fill="#194298" transform="translate(171,259)"/>
<path d="M0 0 C1 2 1 2 0.25 4.9375 C-0.92931463 7.82682085 -1.78177928 8.95850565 -4 11 C-3.5247412 9.35303396 -3.04468109 7.70745272 -2.5625 6.0625 C-2.29566406 5.14597656 -2.02882812 4.22945312 -1.75390625 3.28515625 C-1 1 -1 1 0 0 Z " fill="#465DA0" transform="translate(148,173)"/>
<path d="M0 0 C1.98 0 3.96 0 6 0 C5.34 0.66 4.68 1.32 4 2 C3.30251417 3.31747324 2.63040043 4.64914193 2 6 C0 3 0 3 0 0 Z " fill="#0E2886" transform="translate(149,326)"/>
<path d="M0 0 C0.66 0.33 1.32 0.66 2 1 C-1.465 3.97 -1.465 3.97 -5 7 C-4.1875 4.0625 -4.1875 4.0625 -3 1 C-2.01 0.67 -1.02 0.34 0 0 Z " fill="#223B86" transform="translate(219,317)"/>
<path d="M0 0 C0.99 0 1.98 0 3 0 C2.34 1.98 1.68 3.96 1 6 C0.34 6 -0.32 6 -1 6 C-0.67 4.02 -0.34 2.04 0 0 Z " fill="#244FAB" transform="translate(187,231)"/>
<path d="M0 0 C0.66 0.33 1.32 0.66 2 1 C2 1.66 2 2.32 2 3 C1.34 3 0.68 3 0 3 C0 3.99 0 4.98 0 6 C-0.99 6.33 -1.98 6.66 -3 7 C-2.25 2.25 -2.25 2.25 0 0 Z " fill="#7FB0F6" transform="translate(179,222)"/>
<path d="M0 0 C2.0625 0.4375 2.0625 0.4375 4 1 C3 3 3 3 -0.0625 4.125 C-1.031875 4.41375 -2.00125 4.7025 -3 5 C-1.125 1.125 -1.125 1.125 0 0 Z " fill="#7CACF8" transform="translate(221,218)"/>
</svg>
